<mxfile host="Electron" modified="2024-04-17T03:59:44.328Z" agent="Mozilla/5.0 (Windows NT 10.0; Win64; x64) AppleWebKit/537.36 (KHTML, like Gecko) draw.io/24.2.5 Chrome/120.0.6099.109 Electron/28.1.0 Safari/537.36" etag="Me9mGMjSVRQjJDlIEoHx" version="24.2.5" type="device" pages="3">
  <diagram name="Components" id="YAAo5U81LOoGoC2ZfF5d">
    <mxGraphModel dx="1050" dy="717" grid="1" gridSize="10" guides="1" tooltips="1" connect="1" arrows="1" fold="1" page="1" pageScale="1" pageWidth="850" pageHeight="1100" math="0" shadow="0">
      <root>
        <mxCell id="0" />
        <mxCell id="1" parent="0" />
        <mxCell id="ClbpXUDGMXj9jLXGlXEX-1" value="Flora" style="rounded=0;whiteSpace=wrap;html=1;fillColor=#008a00;fontColor=#ffffff;strokeColor=#005700;fontSize=32;" parent="1" vertex="1">
          <mxGeometry x="200" width="160" height="80" as="geometry" />
        </mxCell>
        <mxCell id="ClbpXUDGMXj9jLXGlXEX-2" value="Alknet Pulp&lt;div&gt;&lt;div&gt;&lt;div&gt;EVOKE / RESIST&lt;/div&gt;&lt;/div&gt;&lt;/div&gt;" style="rounded=1;whiteSpace=wrap;html=1;fillColor=#60a917;fontColor=#ffffff;strokeColor=#2D7600;" parent="1" vertex="1">
          <mxGeometry x="220" y="80" width="120" height="60" as="geometry" />
        </mxCell>
        <mxCell id="ClbpXUDGMXj9jLXGlXEX-3" value="Aloe Vera&lt;div&gt;HEAL / REGEN&lt;/div&gt;" style="rounded=1;whiteSpace=wrap;html=1;fillColor=#60a917;fontColor=#ffffff;strokeColor=#2D7600;" parent="1" vertex="1">
          <mxGeometry x="220" y="140" width="120" height="60" as="geometry" />
        </mxCell>
        <mxCell id="ClbpXUDGMXj9jLXGlXEX-4" value="Dragon&#39;s Tongue&lt;div&gt;DRACO / FORM&lt;/div&gt;" style="rounded=1;whiteSpace=wrap;html=1;fillColor=#60a917;fontColor=#ffffff;strokeColor=#2D7600;" parent="1" vertex="1">
          <mxGeometry x="220" y="200" width="120" height="60" as="geometry" />
        </mxCell>
        <mxCell id="ClbpXUDGMXj9jLXGlXEX-5" value="Foxglove Pulp&lt;div&gt;CHARM / DESIST&lt;span style=&quot;color: rgba(0, 0, 0, 0); font-family: monospace; font-size: 0px; text-align: start; text-wrap: nowrap; background-color: initial;&quot;&gt;%3CmxGraphModel%3E%3Croot%3E%3CmxCell%20id%3D%220%22%2F%3E%3CmxCell%20id%3D%221%22%20parent%3D%220%22%2F%3E%3CmxCell%20id%3D%222%22%20value%3D%22Alknet%20Pulp%26lt%3Bdiv%26gt%3B%26lt%3Bdiv%26gt%3B%26lt%3Bdiv%26gt%3BEVOKE%20%2F%20RESIST%26lt%3B%2Fdiv%26gt%3B%26lt%3B%2Fdiv%26gt%3B%26lt%3B%2Fdiv%26gt%3B%22%20style%3D%22rounded%3D1%3BwhiteSpace%3Dwrap%3Bhtml%3D1%3BfillColor%3D%2360a917%3BfontColor%3D%23ffffff%3BstrokeColor%3D%232D7600%3B%22%20vertex%3D%221%22%20parent%3D%221%22%3E%3CmxGeometry%20x%3D%2220%22%20y%3D%2280%22%20width%3D%22120%22%20height%3D%2260%22%20as%3D%22geometry%22%2F%3E%3C%2FmxCell%3E%3C%2Froot%3E%3C%2FmxGraphModel%3E&lt;/span&gt;&lt;/div&gt;" style="rounded=1;whiteSpace=wrap;html=1;fillColor=#60a917;fontColor=#ffffff;strokeColor=#2D7600;" parent="1" vertex="1">
          <mxGeometry x="220" y="260" width="120" height="60" as="geometry" />
        </mxCell>
        <mxCell id="ClbpXUDGMXj9jLXGlXEX-6" value="Ginko Leaf&lt;div&gt;FABRIM / WEIGHT&lt;/div&gt;" style="rounded=1;whiteSpace=wrap;html=1;fillColor=#60a917;fontColor=#ffffff;strokeColor=#2D7600;" parent="1" vertex="1">
          <mxGeometry x="220" y="320" width="120" height="60" as="geometry" />
        </mxCell>
        <mxCell id="ClbpXUDGMXj9jLXGlXEX-7" value="Lavender&lt;div&gt;ABJURE / DESIST&lt;/div&gt;" style="rounded=1;whiteSpace=wrap;html=1;fillColor=#60a917;fontColor=#ffffff;strokeColor=#2D7600;" parent="1" vertex="1">
          <mxGeometry x="220" y="380" width="120" height="60" as="geometry" />
        </mxCell>
        <mxCell id="ClbpXUDGMXj9jLXGlXEX-8" value="Polypore (red/yellow/blue)&lt;br&gt;ARCANA / ELEM" style="rounded=1;whiteSpace=wrap;html=1;fillColor=#60a917;fontColor=#ffffff;strokeColor=#2D7600;" parent="1" vertex="1">
          <mxGeometry x="220" y="440" width="120" height="60" as="geometry" />
        </mxCell>
        <mxCell id="ClbpXUDGMXj9jLXGlXEX-9" value="Elf&#39;s Cup&lt;div&gt;ARCANA / FABRIM&lt;/div&gt;" style="rounded=1;whiteSpace=wrap;html=1;fillColor=#60a917;fontColor=#ffffff;strokeColor=#2D7600;" parent="1" vertex="1">
          <mxGeometry x="220" y="500" width="120" height="60" as="geometry" />
        </mxCell>
        <mxCell id="ClbpXUDGMXj9jLXGlXEX-10" value="Glowshroom&lt;div&gt;LIGHT / FORM&lt;/div&gt;" style="rounded=1;whiteSpace=wrap;html=1;fillColor=#60a917;fontColor=#ffffff;strokeColor=#2D7600;" parent="1" vertex="1">
          <mxGeometry x="220" y="560" width="120" height="60" as="geometry" />
        </mxCell>
        <mxCell id="ClbpXUDGMXj9jLXGlXEX-11" value="Stinkhorn&lt;div&gt;NECROT / FORM&lt;/div&gt;" style="rounded=1;whiteSpace=wrap;html=1;fillColor=#60a917;fontColor=#ffffff;strokeColor=#2D7600;" parent="1" vertex="1">
          <mxGeometry x="220" y="620" width="120" height="60" as="geometry" />
        </mxCell>
        <mxCell id="ClbpXUDGMXj9jLXGlXEX-12" value="Smokebulb&lt;div&gt;NECROT / CHARM&lt;/div&gt;" style="rounded=1;whiteSpace=wrap;html=1;fillColor=#60a917;fontColor=#ffffff;strokeColor=#2D7600;" parent="1" vertex="1">
          <mxGeometry x="220" y="680" width="120" height="60" as="geometry" />
        </mxCell>
        <mxCell id="ClbpXUDGMXj9jLXGlXEX-13" value="Lephora Fruit&lt;div&gt;ILLUSION / FORM&lt;/div&gt;" style="rounded=1;whiteSpace=wrap;html=1;fillColor=#60a917;fontColor=#ffffff;strokeColor=#2D7600;" parent="1" vertex="1">
          <mxGeometry x="220" y="740" width="120" height="60" as="geometry" />
        </mxCell>
        <mxCell id="ClbpXUDGMXj9jLXGlXEX-14" value="Tobacco&lt;div&gt;CHARM / POISON&lt;/div&gt;" style="rounded=1;whiteSpace=wrap;html=1;fillColor=#60a917;fontColor=#ffffff;strokeColor=#2D7600;" parent="1" vertex="1">
          <mxGeometry x="220" y="800" width="120" height="60" as="geometry" />
        </mxCell>
        <mxCell id="ClbpXUDGMXj9jLXGlXEX-15" value="Cannabis&lt;div&gt;HEAL / POISON&lt;/div&gt;" style="rounded=1;whiteSpace=wrap;html=1;fillColor=#60a917;fontColor=#ffffff;strokeColor=#2D7600;" parent="1" vertex="1">
          <mxGeometry x="220" y="860" width="120" height="60" as="geometry" />
        </mxCell>
        <mxCell id="ClbpXUDGMXj9jLXGlXEX-16" value="Goodberry&lt;div&gt;HEAL / ARCANA&lt;/div&gt;" style="rounded=1;whiteSpace=wrap;html=1;fillColor=#60a917;fontColor=#ffffff;strokeColor=#2D7600;" parent="1" vertex="1">
          <mxGeometry x="220" y="920" width="120" height="60" as="geometry" />
        </mxCell>
        <mxCell id="ClbpXUDGMXj9jLXGlXEX-17" value="Brightmoss&lt;div&gt;LIGHT / REGEN&lt;/div&gt;" style="rounded=1;whiteSpace=wrap;html=1;fillColor=#60a917;fontColor=#ffffff;strokeColor=#2D7600;" parent="1" vertex="1">
          <mxGeometry x="220" y="980" width="120" height="60" as="geometry" />
        </mxCell>
        <mxCell id="ClbpXUDGMXj9jLXGlXEX-18" value="Apple Seed&lt;br&gt;WEIGHT / POISON" style="rounded=1;whiteSpace=wrap;html=1;fillColor=#60a917;fontColor=#ffffff;strokeColor=#2D7600;" parent="1" vertex="1">
          <mxGeometry x="220" y="1040" width="120" height="60" as="geometry" />
        </mxCell>
        <mxCell id="ClbpXUDGMXj9jLXGlXEX-19" value="Harrada&lt;div&gt;POISON / IMMUTE&lt;/div&gt;" style="rounded=1;whiteSpace=wrap;html=1;fillColor=#60a917;fontColor=#ffffff;strokeColor=#2D7600;" parent="1" vertex="1">
          <mxGeometry x="220" y="1100" width="120" height="60" as="geometry" />
        </mxCell>
        <mxCell id="ClbpXUDGMXj9jLXGlXEX-20" value="Mandrake&lt;div&gt;DIVINE / MORTAL&lt;/div&gt;" style="rounded=1;whiteSpace=wrap;html=1;fillColor=#60a917;fontColor=#ffffff;strokeColor=#2D7600;" parent="1" vertex="1">
          <mxGeometry x="220" y="1160" width="120" height="60" as="geometry" />
        </mxCell>
        <mxCell id="ClbpXUDGMXj9jLXGlXEX-21" value="Onion&lt;div&gt;REGEN / DISEASE&lt;/div&gt;" style="rounded=1;whiteSpace=wrap;html=1;fillColor=#60a917;fontColor=#ffffff;strokeColor=#2D7600;" parent="1" vertex="1">
          <mxGeometry x="220" y="1220" width="120" height="60" as="geometry" />
        </mxCell>
        <mxCell id="ClbpXUDGMXj9jLXGlXEX-22" value="Heartnut Twig&lt;div&gt;ABJURE / EVOKE&lt;/div&gt;" style="rounded=1;whiteSpace=wrap;html=1;fillColor=#60a917;fontColor=#ffffff;strokeColor=#2D7600;" parent="1" vertex="1">
          <mxGeometry x="220" y="1280" width="120" height="60" as="geometry" />
        </mxCell>
        <mxCell id="ClbpXUDGMXj9jLXGlXEX-23" value="Ironwood Twig&lt;div&gt;IMMUTE / ARCANA&lt;/div&gt;" style="rounded=1;whiteSpace=wrap;html=1;fillColor=#60a917;fontColor=#ffffff;strokeColor=#2D7600;" parent="1" vertex="1">
          <mxGeometry x="220" y="1340" width="120" height="60" as="geometry" />
        </mxCell>
        <mxCell id="ClbpXUDGMXj9jLXGlXEX-24" value="Momma Moss&lt;div&gt;NECROT / REGEN&lt;/div&gt;" style="rounded=1;whiteSpace=wrap;html=1;fillColor=#60a917;fontColor=#ffffff;strokeColor=#2D7600;" parent="1" vertex="1">
          <mxGeometry x="220" y="1400" width="120" height="60" as="geometry" />
        </mxCell>
        <mxCell id="ClbpXUDGMXj9jLXGlXEX-25" value="Cactus Fruit&lt;div&gt;REGEN / EVOKE&lt;/div&gt;" style="rounded=1;whiteSpace=wrap;html=1;fillColor=#60a917;fontColor=#ffffff;strokeColor=#2D7600;" parent="1" vertex="1">
          <mxGeometry x="220" y="1460" width="120" height="60" as="geometry" />
        </mxCell>
        <mxCell id="ClbpXUDGMXj9jLXGlXEX-26" value="Mountain Flower&lt;div&gt;REGEN / ARCANE&lt;/div&gt;" style="rounded=1;whiteSpace=wrap;html=1;fillColor=#60a917;fontColor=#ffffff;strokeColor=#2D7600;" parent="1" vertex="1">
          <mxGeometry x="220" y="1520" width="120" height="60" as="geometry" />
        </mxCell>
        <mxCell id="ClbpXUDGMXj9jLXGlXEX-27" value="Fauna" style="rounded=0;whiteSpace=wrap;html=1;fillColor=#a0522d;fontColor=#ffffff;strokeColor=#6D1F00;fontSize=32;" parent="1" vertex="1">
          <mxGeometry x="360" width="160" height="80" as="geometry" />
        </mxCell>
        <mxCell id="ClbpXUDGMXj9jLXGlXEX-28" value="Vampire Ash&lt;div&gt;DIVINE / DISEASE&lt;/div&gt;" style="rounded=1;whiteSpace=wrap;html=1;fillColor=#f0a30a;fontColor=#000000;strokeColor=#BD7000;" parent="1" vertex="1">
          <mxGeometry x="380" y="80" width="120" height="60" as="geometry" />
        </mxCell>
        <mxCell id="ClbpXUDGMXj9jLXGlXEX-29" value="Humanoid Blood&lt;div&gt;MORTAL / SPIRIT&lt;/div&gt;" style="rounded=1;whiteSpace=wrap;html=1;fillColor=#f0a30a;fontColor=#000000;strokeColor=#BD7000;" parent="1" vertex="1">
          <mxGeometry x="380" y="140" width="120" height="60" as="geometry" />
        </mxCell>
        <mxCell id="ClbpXUDGMXj9jLXGlXEX-30" value="Feindish Blood&lt;div&gt;MORTAL / ILLUSION&lt;/div&gt;" style="rounded=1;whiteSpace=wrap;html=1;fillColor=#f0a30a;fontColor=#000000;strokeColor=#BD7000;" parent="1" vertex="1">
          <mxGeometry x="380" y="200" width="120" height="60" as="geometry" />
        </mxCell>
        <mxCell id="ClbpXUDGMXj9jLXGlXEX-31" value="Celestial Blood&lt;div&gt;MORTAL / DIVINE&lt;/div&gt;" style="rounded=1;whiteSpace=wrap;html=1;fillColor=#f0a30a;fontColor=#000000;strokeColor=#BD7000;" parent="1" vertex="1">
          <mxGeometry x="380" y="260" width="120" height="60" as="geometry" />
        </mxCell>
        <mxCell id="ClbpXUDGMXj9jLXGlXEX-32" value="Fey Blood&lt;div&gt;MORTAL / ARCANA&lt;/div&gt;" style="rounded=1;whiteSpace=wrap;html=1;fillColor=#f0a30a;fontColor=#000000;strokeColor=#BD7000;" parent="1" vertex="1">
          <mxGeometry x="380" y="320" width="120" height="60" as="geometry" />
        </mxCell>
        <mxCell id="ClbpXUDGMXj9jLXGlXEX-33" value="Humanoid Bone&lt;div&gt;MORTAL / NECROT&lt;/div&gt;" style="rounded=1;whiteSpace=wrap;html=1;fillColor=#f0a30a;fontColor=#000000;strokeColor=#BD7000;" parent="1" vertex="1">
          <mxGeometry x="380" y="380" width="120" height="60" as="geometry" />
        </mxCell>
        <mxCell id="ClbpXUDGMXj9jLXGlXEX-34" value="Insectial Cocoon&lt;div&gt;FORM / MORTAL&lt;/div&gt;" style="rounded=1;whiteSpace=wrap;html=1;fillColor=#f0a30a;fontColor=#000000;strokeColor=#BD7000;" parent="1" vertex="1">
          <mxGeometry x="380" y="440" width="120" height="60" as="geometry" />
        </mxCell>
        <mxCell id="ClbpXUDGMXj9jLXGlXEX-35" value="Newt Eye&lt;div&gt;FORM / CHARM&lt;/div&gt;" style="rounded=1;whiteSpace=wrap;html=1;fillColor=#f0a30a;fontColor=#000000;strokeColor=#BD7000;" parent="1" vertex="1">
          <mxGeometry x="380" y="500" width="120" height="60" as="geometry" />
        </mxCell>
        <mxCell id="ClbpXUDGMXj9jLXGlXEX-36" value="Cockatrice Eye&lt;div&gt;NECROT / FORM&lt;/div&gt;" style="rounded=1;whiteSpace=wrap;html=1;fillColor=#f0a30a;fontColor=#000000;strokeColor=#BD7000;" parent="1" vertex="1">
          <mxGeometry x="380" y="560" width="120" height="60" as="geometry" />
        </mxCell>
        <mxCell id="ClbpXUDGMXj9jLXGlXEX-37" value="Beholder Eye&lt;div&gt;ARCANA / EVOKE&lt;/div&gt;" style="rounded=1;whiteSpace=wrap;html=1;fillColor=#f0a30a;fontColor=#000000;strokeColor=#BD7000;" parent="1" vertex="1">
          <mxGeometry x="380" y="620" width="120" height="60" as="geometry" />
        </mxCell>
        <mxCell id="ClbpXUDGMXj9jLXGlXEX-38" value="Dragon Eye&lt;div&gt;DRACO / ILLUSION&lt;/div&gt;" style="rounded=1;whiteSpace=wrap;html=1;fillColor=#f0a30a;fontColor=#000000;strokeColor=#BD7000;" parent="1" vertex="1">
          <mxGeometry x="380" y="680" width="120" height="60" as="geometry" />
        </mxCell>
        <mxCell id="ClbpXUDGMXj9jLXGlXEX-39" value="Basalisk Fang&lt;div&gt;IMMUTE / DEGEN&lt;/div&gt;" style="rounded=1;whiteSpace=wrap;html=1;fillColor=#f0a30a;fontColor=#000000;strokeColor=#BD7000;" parent="1" vertex="1">
          <mxGeometry x="380" y="740" width="120" height="60" as="geometry" />
        </mxCell>
        <mxCell id="ClbpXUDGMXj9jLXGlXEX-40" value="Dragon Fang&lt;div&gt;DRACO / EVOKE&lt;/div&gt;" style="rounded=1;whiteSpace=wrap;html=1;fillColor=#f0a30a;fontColor=#000000;strokeColor=#BD7000;" parent="1" vertex="1">
          <mxGeometry x="380" y="800" width="120" height="60" as="geometry" />
        </mxCell>
        <mxCell id="ClbpXUDGMXj9jLXGlXEX-41" value="Worm Fang&lt;div&gt;ABJURE / IMMUTE&lt;/div&gt;" style="rounded=1;whiteSpace=wrap;html=1;fillColor=#f0a30a;fontColor=#000000;strokeColor=#BD7000;" parent="1" vertex="1">
          <mxGeometry x="380" y="860" width="120" height="60" as="geometry" />
        </mxCell>
        <mxCell id="ClbpXUDGMXj9jLXGlXEX-42" value="Generic Feather&lt;div&gt;WEIGHT / LIGHT&lt;/div&gt;" style="rounded=1;whiteSpace=wrap;html=1;fillColor=#f0a30a;fontColor=#000000;strokeColor=#BD7000;" parent="1" vertex="1">
          <mxGeometry x="380" y="920" width="120" height="60" as="geometry" />
        </mxCell>
        <mxCell id="ClbpXUDGMXj9jLXGlXEX-43" value="Phoenix Feather&lt;div&gt;WEIGHT / REGEN&lt;/div&gt;" style="rounded=1;whiteSpace=wrap;html=1;fillColor=#f0a30a;fontColor=#000000;strokeColor=#BD7000;" parent="1" vertex="1">
          <mxGeometry x="380" y="980" width="120" height="60" as="geometry" />
        </mxCell>
        <mxCell id="ClbpXUDGMXj9jLXGlXEX-44" value="Harpy Feather&lt;div&gt;WEIGHT / BANE&lt;/div&gt;" style="rounded=1;whiteSpace=wrap;html=1;fillColor=#f0a30a;fontColor=#000000;strokeColor=#BD7000;" parent="1" vertex="1">
          <mxGeometry x="380" y="1040" width="120" height="60" as="geometry" />
        </mxCell>
        <mxCell id="ClbpXUDGMXj9jLXGlXEX-45" value="Owlbear Feather&lt;div&gt;WEIGHT / ABJURE&lt;/div&gt;" style="rounded=1;whiteSpace=wrap;html=1;fillColor=#f0a30a;fontColor=#000000;strokeColor=#BD7000;" parent="1" vertex="1">
          <mxGeometry x="380" y="1100" width="120" height="60" as="geometry" />
        </mxCell>
        <mxCell id="ClbpXUDGMXj9jLXGlXEX-46" value="Ankheg Gullet&lt;div&gt;POISON / FORM&lt;/div&gt;" style="rounded=1;whiteSpace=wrap;html=1;fillColor=#f0a30a;fontColor=#000000;strokeColor=#BD7000;" parent="1" vertex="1">
          <mxGeometry x="380" y="1160" width="120" height="60" as="geometry" />
        </mxCell>
        <mxCell id="ClbpXUDGMXj9jLXGlXEX-47" value="Gorgon Gullet&lt;div&gt;NECROT / POION&lt;/div&gt;" style="rounded=1;whiteSpace=wrap;html=1;fillColor=#f0a30a;fontColor=#000000;strokeColor=#BD7000;" parent="1" vertex="1">
          <mxGeometry x="380" y="1220" width="120" height="60" as="geometry" />
        </mxCell>
        <mxCell id="ClbpXUDGMXj9jLXGlXEX-48" value="Basalisk Gullet&lt;div&gt;NECROT / EVOKE&lt;/div&gt;" style="rounded=1;whiteSpace=wrap;html=1;fillColor=#f0a30a;fontColor=#000000;strokeColor=#BD7000;" parent="1" vertex="1">
          <mxGeometry x="380" y="1280" width="120" height="60" as="geometry" />
        </mxCell>
        <mxCell id="ClbpXUDGMXj9jLXGlXEX-49" value="Dragon Heart&lt;div&gt;DRACO / MORTAL&lt;/div&gt;" style="rounded=1;whiteSpace=wrap;html=1;fillColor=#f0a30a;fontColor=#000000;strokeColor=#BD7000;" parent="1" vertex="1">
          <mxGeometry x="380" y="1340" width="120" height="60" as="geometry" />
        </mxCell>
        <mxCell id="ClbpXUDGMXj9jLXGlXEX-50" value="Humanoid Hair&lt;div&gt;MORTAL / SPIRIT&lt;/div&gt;" style="rounded=1;whiteSpace=wrap;html=1;fillColor=#f0a30a;fontColor=#000000;strokeColor=#BD7000;" parent="1" vertex="1">
          <mxGeometry x="380" y="1400" width="120" height="60" as="geometry" />
        </mxCell>
        <mxCell id="ClbpXUDGMXj9jLXGlXEX-51" value="Satyr Hair&lt;div&gt;SPIRIT / CHARM&lt;/div&gt;" style="rounded=1;whiteSpace=wrap;html=1;fillColor=#f0a30a;fontColor=#000000;strokeColor=#BD7000;" parent="1" vertex="1">
          <mxGeometry x="380" y="1460" width="120" height="60" as="geometry" />
        </mxCell>
        <mxCell id="ClbpXUDGMXj9jLXGlXEX-52" value="Goat&#39;s Horn&lt;div&gt;IMMUTE / BANE&lt;/div&gt;" style="rounded=1;whiteSpace=wrap;html=1;fillColor=#f0a30a;fontColor=#000000;strokeColor=#BD7000;" parent="1" vertex="1">
          <mxGeometry x="380" y="1520" width="120" height="60" as="geometry" />
        </mxCell>
        <mxCell id="ClbpXUDGMXj9jLXGlXEX-53" value="Feind&#39;s Horn&lt;div&gt;NECROT&amp;nbsp;&lt;span style=&quot;background-color: initial;&quot;&gt;/ CHARM&lt;/span&gt;&lt;/div&gt;" style="rounded=1;whiteSpace=wrap;html=1;fillColor=#f0a30a;fontColor=#000000;strokeColor=#BD7000;" parent="1" vertex="1">
          <mxGeometry x="380" y="1580" width="120" height="60" as="geometry" />
        </mxCell>
        <mxCell id="ClbpXUDGMXj9jLXGlXEX-54" value="Unicorn&#39;s Horn&lt;div&gt;REGEN&amp;nbsp;&lt;span style=&quot;background-color: initial;&quot;&gt;/ CHARM&lt;/span&gt;&lt;br&gt;&lt;/div&gt;" style="rounded=1;whiteSpace=wrap;html=1;fillColor=#f0a30a;fontColor=#000000;strokeColor=#BD7000;" parent="1" vertex="1">
          <mxGeometry x="380" y="1640" width="120" height="60" as="geometry" />
        </mxCell>
        <mxCell id="ClbpXUDGMXj9jLXGlXEX-55" value="Ivory&lt;div&gt;FABRIM / EVOKE&lt;/div&gt;" style="rounded=1;whiteSpace=wrap;html=1;fillColor=#f0a30a;fontColor=#000000;strokeColor=#BD7000;" parent="1" vertex="1">
          <mxGeometry x="380" y="1700" width="120" height="60" as="geometry" />
        </mxCell>
        <mxCell id="ClbpXUDGMXj9jLXGlXEX-56" value="Dragon Liver&lt;div&gt;DRACO / DEGEN&lt;/div&gt;" style="rounded=1;whiteSpace=wrap;html=1;fillColor=#f0a30a;fontColor=#000000;strokeColor=#BD7000;" parent="1" vertex="1">
          <mxGeometry x="380" y="1760" width="120" height="60" as="geometry" />
        </mxCell>
        <mxCell id="ClbpXUDGMXj9jLXGlXEX-57" value="Basalisk Liver&lt;div&gt;IMMUTE / FORM&lt;/div&gt;" style="rounded=1;whiteSpace=wrap;html=1;fillColor=#f0a30a;fontColor=#000000;strokeColor=#BD7000;" parent="1" vertex="1">
          <mxGeometry x="380" y="1820" width="120" height="60" as="geometry" />
        </mxCell>
        <mxCell id="ClbpXUDGMXj9jLXGlXEX-58" value="Snake Scale&lt;div&gt;DESIST / MORTAL&lt;/div&gt;" style="rounded=1;whiteSpace=wrap;html=1;fillColor=#f0a30a;fontColor=#000000;strokeColor=#BD7000;" parent="1" vertex="1">
          <mxGeometry x="380" y="1880" width="120" height="60" as="geometry" />
        </mxCell>
        <mxCell id="ClbpXUDGMXj9jLXGlXEX-59" value="Hyrda Scale&lt;div&gt;DESIST / BANE&lt;/div&gt;" style="rounded=1;whiteSpace=wrap;html=1;fillColor=#f0a30a;fontColor=#000000;strokeColor=#BD7000;" parent="1" vertex="1">
          <mxGeometry x="380" y="1940" width="120" height="60" as="geometry" />
        </mxCell>
        <mxCell id="ClbpXUDGMXj9jLXGlXEX-60" value="Dragon Scale&lt;div&gt;DRACO / DESIST&lt;/div&gt;" style="rounded=1;whiteSpace=wrap;html=1;fillColor=#f0a30a;fontColor=#000000;strokeColor=#BD7000;" parent="1" vertex="1">
          <mxGeometry x="380" y="2000" width="120" height="60" as="geometry" />
        </mxCell>
        <mxCell id="ClbpXUDGMXj9jLXGlXEX-61" value="Leather&lt;div&gt;FABRIM / DESIST&lt;/div&gt;" style="rounded=1;whiteSpace=wrap;html=1;fillColor=#f0a30a;fontColor=#000000;strokeColor=#BD7000;" parent="1" vertex="1">
          <mxGeometry x="380" y="2060" width="120" height="60" as="geometry" />
        </mxCell>
        <mxCell id="ClbpXUDGMXj9jLXGlXEX-62" value="Displacer Leather&lt;div&gt;DESIST / ARCANA&lt;/div&gt;" style="rounded=1;whiteSpace=wrap;html=1;fillColor=#f0a30a;fontColor=#000000;strokeColor=#BD7000;" parent="1" vertex="1">
          <mxGeometry x="380" y="2120" width="120" height="60" as="geometry" />
        </mxCell>
        <mxCell id="ClbpXUDGMXj9jLXGlXEX-63" value="Chitin&lt;div&gt;DESIST / ABJURE&lt;/div&gt;" style="rounded=1;whiteSpace=wrap;html=1;fillColor=#f0a30a;fontColor=#000000;strokeColor=#BD7000;" parent="1" vertex="1">
          <mxGeometry x="380" y="2180" width="120" height="60" as="geometry" />
        </mxCell>
        <mxCell id="ClbpXUDGMXj9jLXGlXEX-64" value="Green Ooze&lt;div&gt;REGEN / FORM&lt;/div&gt;" style="rounded=1;whiteSpace=wrap;html=1;fillColor=#f0a30a;fontColor=#000000;strokeColor=#BD7000;" parent="1" vertex="1">
          <mxGeometry x="380" y="2240" width="120" height="60" as="geometry" />
        </mxCell>
        <mxCell id="ClbpXUDGMXj9jLXGlXEX-65" value="Black Ooze&lt;div&gt;DEGEN / FORM&lt;/div&gt;" style="rounded=1;whiteSpace=wrap;html=1;fillColor=#f0a30a;fontColor=#000000;strokeColor=#BD7000;" parent="1" vertex="1">
          <mxGeometry x="380" y="2300" width="120" height="60" as="geometry" />
        </mxCell>
        <mxCell id="ClbpXUDGMXj9jLXGlXEX-66" value="Yellow Ooze&lt;div&gt;WEIGHT / FORM&lt;/div&gt;" style="rounded=1;whiteSpace=wrap;html=1;fillColor=#f0a30a;fontColor=#000000;strokeColor=#BD7000;" parent="1" vertex="1">
          <mxGeometry x="380" y="2360" width="120" height="60" as="geometry" />
        </mxCell>
        <mxCell id="ClbpXUDGMXj9jLXGlXEX-67" value="Brown Ooze&lt;div&gt;DISEASE / FORM&lt;/div&gt;" style="rounded=1;whiteSpace=wrap;html=1;fillColor=#f0a30a;fontColor=#000000;strokeColor=#BD7000;" parent="1" vertex="1">
          <mxGeometry x="380" y="2420" width="120" height="60" as="geometry" />
        </mxCell>
        <mxCell id="ClbpXUDGMXj9jLXGlXEX-68" value="Feind Excrete&lt;div&gt;CHARM / ARCANA&lt;/div&gt;" style="rounded=1;whiteSpace=wrap;html=1;fillColor=#f0a30a;fontColor=#000000;strokeColor=#BD7000;" parent="1" vertex="1">
          <mxGeometry x="380" y="2480" width="120" height="60" as="geometry" />
        </mxCell>
        <mxCell id="ClbpXUDGMXj9jLXGlXEX-69" value="Ectoplasm&lt;div&gt;SPIRIT / IMMORT&lt;/div&gt;" style="rounded=1;whiteSpace=wrap;html=1;fillColor=#f0a30a;fontColor=#000000;strokeColor=#BD7000;" parent="1" vertex="1">
          <mxGeometry x="380" y="2540" width="120" height="60" as="geometry" />
        </mxCell>
        <mxCell id="ClbpXUDGMXj9jLXGlXEX-70" value="Insect Venom&lt;div&gt;DISEASE / POISON&lt;/div&gt;" style="rounded=1;whiteSpace=wrap;html=1;fillColor=#f0a30a;fontColor=#000000;strokeColor=#BD7000;" parent="1" vertex="1">
          <mxGeometry x="380" y="2600" width="120" height="60" as="geometry" />
        </mxCell>
        <mxCell id="ClbpXUDGMXj9jLXGlXEX-71" value="Basalisk Venom&lt;div&gt;NECROT / FORM&lt;/div&gt;" style="rounded=1;whiteSpace=wrap;html=1;fillColor=#f0a30a;fontColor=#000000;strokeColor=#BD7000;" parent="1" vertex="1">
          <mxGeometry x="380" y="2660" width="120" height="60" as="geometry" />
        </mxCell>
        <mxCell id="ClbpXUDGMXj9jLXGlXEX-72" value="Bat Guano&lt;div&gt;FIRE / EVOKE&lt;/div&gt;" style="rounded=1;whiteSpace=wrap;html=1;fillColor=#f0a30a;fontColor=#000000;strokeColor=#BD7000;" parent="1" vertex="1">
          <mxGeometry x="380" y="2720" width="120" height="60" as="geometry" />
        </mxCell>
        <mxCell id="GWsue6pcty8NE5yQGUCx-2" value="Fauna" style="rounded=0;whiteSpace=wrap;html=1;fillColor=#647687;fontColor=#ffffff;strokeColor=#314354;fontSize=32;" parent="1" vertex="1">
          <mxGeometry x="520" width="160" height="80" as="geometry" />
        </mxCell>
        <mxCell id="GWsue6pcty8NE5yQGUCx-3" value="Agate&lt;div&gt;FABRIM / SPIRIT&lt;/div&gt;" style="rounded=1;whiteSpace=wrap;html=1;fillColor=#76608a;fontColor=#ffffff;strokeColor=#432D57;" parent="1" vertex="1">
          <mxGeometry x="540" y="80" width="120" height="60" as="geometry" />
        </mxCell>
        <mxCell id="GWsue6pcty8NE5yQGUCx-11" value="Amber&lt;div&gt;IMMUTE / DUNAM&lt;/div&gt;" style="rounded=1;whiteSpace=wrap;html=1;fillColor=#76608a;fontColor=#ffffff;strokeColor=#432D57;" parent="1" vertex="1">
          <mxGeometry x="540" y="140" width="120" height="60" as="geometry" />
        </mxCell>
        <mxCell id="GWsue6pcty8NE5yQGUCx-12" value="Colored Crystal&lt;div&gt;ILLUSION / FORM&lt;/div&gt;" style="rounded=1;whiteSpace=wrap;html=1;fillColor=#76608a;fontColor=#ffffff;strokeColor=#432D57;" parent="1" vertex="1">
          <mxGeometry x="540" y="200" width="120" height="60" as="geometry" />
        </mxCell>
        <mxCell id="GWsue6pcty8NE5yQGUCx-13" value="Clear Crystal&lt;div&gt;FABRIM / FORM&lt;/div&gt;" style="rounded=1;whiteSpace=wrap;html=1;fillColor=#76608a;fontColor=#ffffff;strokeColor=#432D57;" parent="1" vertex="1">
          <mxGeometry x="540" y="260" width="120" height="60" as="geometry" />
        </mxCell>
        <mxCell id="GWsue6pcty8NE5yQGUCx-14" value="Diamond&lt;div&gt;WEIGHT / FORM&lt;/div&gt;" style="rounded=1;whiteSpace=wrap;html=1;fillColor=#76608a;fontColor=#ffffff;strokeColor=#432D57;" parent="1" vertex="1">
          <mxGeometry x="540" y="320" width="120" height="60" as="geometry" />
        </mxCell>
        <mxCell id="GWsue6pcty8NE5yQGUCx-15" value="Ruby&lt;div&gt;FIRE / FABRIM&lt;/div&gt;" style="rounded=1;whiteSpace=wrap;html=1;fillColor=#76608a;fontColor=#ffffff;strokeColor=#432D57;" parent="1" vertex="1">
          <mxGeometry x="540" y="380" width="120" height="60" as="geometry" />
        </mxCell>
        <mxCell id="GWsue6pcty8NE5yQGUCx-16" value="Sapphire&lt;div&gt;WATER / FABRIM&lt;/div&gt;" style="rounded=1;whiteSpace=wrap;html=1;fillColor=#76608a;fontColor=#ffffff;strokeColor=#432D57;" parent="1" vertex="1">
          <mxGeometry x="540" y="440" width="120" height="60" as="geometry" />
        </mxCell>
        <mxCell id="GWsue6pcty8NE5yQGUCx-17" value="Emerald&lt;div&gt;EARTH / FABRIM&lt;/div&gt;" style="rounded=1;whiteSpace=wrap;html=1;fillColor=#76608a;fontColor=#ffffff;strokeColor=#432D57;" parent="1" vertex="1">
          <mxGeometry x="540" y="500" width="120" height="60" as="geometry" />
        </mxCell>
        <mxCell id="GWsue6pcty8NE5yQGUCx-18" value="Amethyst&lt;div&gt;ABJURE / FABRIM&lt;/div&gt;" style="rounded=1;whiteSpace=wrap;html=1;fillColor=#76608a;fontColor=#ffffff;strokeColor=#432D57;" parent="1" vertex="1">
          <mxGeometry x="540" y="620" width="120" height="60" as="geometry" />
        </mxCell>
        <mxCell id="GWsue6pcty8NE5yQGUCx-19" value="Glass&lt;div&gt;AIR / FABRIM&lt;/div&gt;" style="rounded=1;whiteSpace=wrap;html=1;fillColor=#76608a;fontColor=#ffffff;strokeColor=#432D57;" parent="1" vertex="1">
          <mxGeometry x="540" y="560" width="120" height="60" as="geometry" />
        </mxCell>
        <mxCell id="GWsue6pcty8NE5yQGUCx-20" value="Onyx&lt;div&gt;LIGHT / ARCANA&lt;/div&gt;" style="rounded=1;whiteSpace=wrap;html=1;fillColor=#76608a;fontColor=#ffffff;strokeColor=#432D57;" parent="1" vertex="1">
          <mxGeometry x="540" y="680" width="120" height="60" as="geometry" />
        </mxCell>
        <mxCell id="GWsue6pcty8NE5yQGUCx-21" value="Jade&lt;div&gt;HEALING / DIVINE&lt;/div&gt;" style="rounded=1;whiteSpace=wrap;html=1;fillColor=#76608a;fontColor=#ffffff;strokeColor=#432D57;" parent="1" vertex="1">
          <mxGeometry x="540" y="740" width="120" height="60" as="geometry" />
        </mxCell>
        <mxCell id="GWsue6pcty8NE5yQGUCx-22" value="White Quartz&lt;div&gt;AIR / ARCANA&lt;/div&gt;" style="rounded=1;whiteSpace=wrap;html=1;fillColor=#76608a;fontColor=#ffffff;strokeColor=#432D57;" parent="1" vertex="1">
          <mxGeometry x="540" y="800" width="120" height="60" as="geometry" />
        </mxCell>
        <mxCell id="GWsue6pcty8NE5yQGUCx-23" value="Rose Quartz&lt;div&gt;FIRE / ARCANA&lt;/div&gt;" style="rounded=1;whiteSpace=wrap;html=1;fillColor=#76608a;fontColor=#ffffff;strokeColor=#432D57;" parent="1" vertex="1">
          <mxGeometry x="540" y="860" width="120" height="60" as="geometry" />
        </mxCell>
        <mxCell id="GWsue6pcty8NE5yQGUCx-24" value="Durandurm&lt;div&gt;DUNAM / ARCANA&lt;/div&gt;" style="rounded=1;whiteSpace=wrap;html=1;fillColor=#76608a;fontColor=#ffffff;strokeColor=#432D57;" parent="1" vertex="1">
          <mxGeometry x="540" y="920" width="120" height="60" as="geometry" />
        </mxCell>
        <mxCell id="GWsue6pcty8NE5yQGUCx-25" value="Adamentine&lt;div&gt;ABJURE / DESIST&lt;/div&gt;" style="rounded=1;whiteSpace=wrap;html=1;fillColor=#76608a;fontColor=#ffffff;strokeColor=#432D57;" parent="1" vertex="1">
          <mxGeometry x="540" y="980" width="120" height="60" as="geometry" />
        </mxCell>
        <mxCell id="GWsue6pcty8NE5yQGUCx-27" value="Alabaster&lt;div&gt;DESIST / ARCANA&lt;/div&gt;" style="rounded=1;whiteSpace=wrap;html=1;fillColor=#76608a;fontColor=#ffffff;strokeColor=#432D57;" parent="1" vertex="1">
          <mxGeometry x="540" y="1040" width="120" height="60" as="geometry" />
        </mxCell>
        <mxCell id="GWsue6pcty8NE5yQGUCx-28" value="Copper&lt;div&gt;FABRIM / ARCANA&lt;/div&gt;" style="rounded=1;whiteSpace=wrap;html=1;fillColor=#76608a;fontColor=#ffffff;strokeColor=#432D57;" parent="1" vertex="1">
          <mxGeometry x="540" y="1100" width="120" height="60" as="geometry" />
        </mxCell>
        <mxCell id="GWsue6pcty8NE5yQGUCx-29" value="Gold&lt;div&gt;FABRIM / DUNAM&lt;/div&gt;" style="rounded=1;whiteSpace=wrap;html=1;fillColor=#76608a;fontColor=#ffffff;strokeColor=#432D57;" parent="1" vertex="1">
          <mxGeometry x="540" y="1160" width="120" height="60" as="geometry" />
        </mxCell>
        <mxCell id="GWsue6pcty8NE5yQGUCx-31" value="Iron&lt;div&gt;FABRIM / EVOKE&lt;/div&gt;" style="rounded=1;whiteSpace=wrap;html=1;fillColor=#76608a;fontColor=#ffffff;strokeColor=#432D57;" parent="1" vertex="1">
          <mxGeometry x="540" y="1220" width="120" height="60" as="geometry" />
        </mxCell>
        <mxCell id="GWsue6pcty8NE5yQGUCx-32" value="Silver&lt;div&gt;FABRIM / ILLUSION&lt;/div&gt;" style="rounded=1;whiteSpace=wrap;html=1;fillColor=#76608a;fontColor=#ffffff;strokeColor=#432D57;" parent="1" vertex="1">
          <mxGeometry x="540" y="1280" width="120" height="60" as="geometry" />
        </mxCell>
        <mxCell id="GWsue6pcty8NE5yQGUCx-33" value="Lead&lt;div&gt;FABRIM / WEIGHT&lt;/div&gt;" style="rounded=1;whiteSpace=wrap;html=1;fillColor=#76608a;fontColor=#ffffff;strokeColor=#432D57;" parent="1" vertex="1">
          <mxGeometry x="540" y="1340" width="120" height="60" as="geometry" />
        </mxCell>
        <mxCell id="GWsue6pcty8NE5yQGUCx-34" value="Bronze&lt;div&gt;FABRIM / FORM&lt;/div&gt;" style="rounded=1;whiteSpace=wrap;html=1;fillColor=#76608a;fontColor=#ffffff;strokeColor=#432D57;" parent="1" vertex="1">
          <mxGeometry x="540" y="1400" width="120" height="60" as="geometry" />
        </mxCell>
        <mxCell id="GWsue6pcty8NE5yQGUCx-35" value="Pewter&lt;div&gt;BANE / EARTH&lt;/div&gt;" style="rounded=1;whiteSpace=wrap;html=1;fillColor=#76608a;fontColor=#ffffff;strokeColor=#432D57;" parent="1" vertex="1">
          <mxGeometry x="540" y="1460" width="120" height="60" as="geometry" />
        </mxCell>
        <mxCell id="GWsue6pcty8NE5yQGUCx-36" value="Tin&lt;div&gt;FABRIM / ILLUSION&lt;/div&gt;" style="rounded=1;whiteSpace=wrap;html=1;fillColor=#76608a;fontColor=#ffffff;strokeColor=#432D57;" parent="1" vertex="1">
          <mxGeometry x="540" y="1520" width="120" height="60" as="geometry" />
        </mxCell>
        <mxCell id="GWsue6pcty8NE5yQGUCx-37" value="Platinum&lt;div&gt;FABRIM / EVOKE&lt;/div&gt;" style="rounded=1;whiteSpace=wrap;html=1;fillColor=#76608a;fontColor=#ffffff;strokeColor=#432D57;" parent="1" vertex="1">
          <mxGeometry x="540" y="1580" width="120" height="60" as="geometry" />
        </mxCell>
        <mxCell id="GWsue6pcty8NE5yQGUCx-38" value="Mithril&lt;div&gt;FABRIM / IMMORT&lt;/div&gt;" style="rounded=1;whiteSpace=wrap;html=1;fillColor=#76608a;fontColor=#ffffff;strokeColor=#432D57;" parent="1" vertex="1">
          <mxGeometry x="540" y="1640" width="120" height="60" as="geometry" />
        </mxCell>
        <mxCell id="GWsue6pcty8NE5yQGUCx-39" value="Mica&lt;div&gt;ILLUSION / EVOKE&lt;/div&gt;" style="rounded=1;whiteSpace=wrap;html=1;fillColor=#76608a;fontColor=#ffffff;strokeColor=#432D57;" parent="1" vertex="1">
          <mxGeometry x="540" y="1700" width="120" height="60" as="geometry" />
        </mxCell>
        <mxCell id="GWsue6pcty8NE5yQGUCx-40" value="Marble&lt;div&gt;FORM / ILLUSION&lt;/div&gt;" style="rounded=1;whiteSpace=wrap;html=1;fillColor=#76608a;fontColor=#ffffff;strokeColor=#432D57;" parent="1" vertex="1">
          <mxGeometry x="540" y="1760" width="120" height="60" as="geometry" />
        </mxCell>
        <mxCell id="GWsue6pcty8NE5yQGUCx-41" value="Slate&lt;div&gt;IMMUTE / ILLUSION&lt;/div&gt;" style="rounded=1;whiteSpace=wrap;html=1;fillColor=#76608a;fontColor=#ffffff;strokeColor=#432D57;" parent="1" vertex="1">
          <mxGeometry x="540" y="1820" width="120" height="60" as="geometry" />
        </mxCell>
        <mxCell id="GWsue6pcty8NE5yQGUCx-42" value="&lt;div&gt;&lt;span style=&quot;text-align: start;&quot;&gt;Granite&amp;nbsp;&lt;/span&gt;&lt;/div&gt;&lt;div&gt;&lt;span style=&quot;text-align: start;&quot;&gt;DESIST / WEIGHT&lt;/span&gt;&lt;span style=&quot;color: rgba(0, 0, 0, 0); font-family: monospace; font-size: 0px; text-align: start; text-wrap: nowrap; background-color: initial;&quot;&gt;DesDESESD&lt;/span&gt;&lt;/div&gt;" style="rounded=1;whiteSpace=wrap;html=1;fillColor=#76608a;fontColor=#ffffff;strokeColor=#432D57;" parent="1" vertex="1">
          <mxGeometry x="540" y="1880" width="120" height="60" as="geometry" />
        </mxCell>
        <mxCell id="GWsue6pcty8NE5yQGUCx-43" value="Sandstone&lt;div&gt;NECROT / REGEN&lt;/div&gt;" style="rounded=1;whiteSpace=wrap;html=1;fillColor=#76608a;fontColor=#ffffff;strokeColor=#432D57;" parent="1" vertex="1">
          <mxGeometry x="540" y="1940" width="120" height="60" as="geometry" />
        </mxCell>
        <mxCell id="GWsue6pcty8NE5yQGUCx-44" value="Limestone&lt;div&gt;EVOKE / FABRIM&lt;/div&gt;" style="rounded=1;whiteSpace=wrap;html=1;fillColor=#76608a;fontColor=#ffffff;strokeColor=#432D57;" parent="1" vertex="1">
          <mxGeometry x="540" y="2000" width="120" height="60" as="geometry" />
        </mxCell>
        <mxCell id="GWsue6pcty8NE5yQGUCx-45" value="Alum&lt;div&gt;DEGEN / FABRIM&lt;/div&gt;" style="rounded=1;whiteSpace=wrap;html=1;fillColor=#76608a;fontColor=#ffffff;strokeColor=#432D57;" parent="1" vertex="1">
          <mxGeometry x="540" y="2060" width="120" height="60" as="geometry" />
        </mxCell>
        <mxCell id="GWsue6pcty8NE5yQGUCx-46" value="Chalk&lt;div&gt;EVOKE / ARCANA&lt;/div&gt;" style="rounded=1;whiteSpace=wrap;html=1;fillColor=#76608a;fontColor=#ffffff;strokeColor=#432D57;" parent="1" vertex="1">
          <mxGeometry x="540" y="2120" width="120" height="60" as="geometry" />
        </mxCell>
        <mxCell id="GWsue6pcty8NE5yQGUCx-47" value="Coal&lt;div&gt;FIRE / FORM&lt;/div&gt;" style="rounded=1;whiteSpace=wrap;html=1;fillColor=#76608a;fontColor=#ffffff;strokeColor=#432D57;" parent="1" vertex="1">
          <mxGeometry x="540" y="2180" width="120" height="60" as="geometry" />
        </mxCell>
        <mxCell id="GWsue6pcty8NE5yQGUCx-48" value="Charcoal&lt;div&gt;FIRE / WEIGHT&lt;/div&gt;" style="rounded=1;whiteSpace=wrap;html=1;fillColor=#76608a;fontColor=#ffffff;strokeColor=#432D57;" parent="1" vertex="1">
          <mxGeometry x="540" y="2240" width="120" height="60" as="geometry" />
        </mxCell>
        <mxCell id="GWsue6pcty8NE5yQGUCx-49" value="Rich Soil&lt;div&gt;MORTAL / REGEN&lt;/div&gt;" style="rounded=1;whiteSpace=wrap;html=1;fillColor=#76608a;fontColor=#ffffff;strokeColor=#432D57;" parent="1" vertex="1">
          <mxGeometry x="540" y="2300" width="120" height="60" as="geometry" />
        </mxCell>
        <mxCell id="GWsue6pcty8NE5yQGUCx-50" value="Soil&lt;div&gt;EARTH / REGEN&lt;/div&gt;" style="rounded=1;whiteSpace=wrap;html=1;fillColor=#76608a;fontColor=#ffffff;strokeColor=#432D57;" parent="1" vertex="1">
          <mxGeometry x="540" y="2360" width="120" height="60" as="geometry" />
        </mxCell>
        <mxCell id="GWsue6pcty8NE5yQGUCx-51" value="Rock Salt&lt;div&gt;EARTH / FORM&lt;/div&gt;" style="rounded=1;whiteSpace=wrap;html=1;fillColor=#76608a;fontColor=#ffffff;strokeColor=#432D57;" parent="1" vertex="1">
          <mxGeometry x="540" y="2420" width="120" height="60" as="geometry" />
        </mxCell>
        <mxCell id="GWsue6pcty8NE5yQGUCx-52" value="Sea Salt&lt;div&gt;WATER / FORM&lt;/div&gt;" style="rounded=1;whiteSpace=wrap;html=1;fillColor=#76608a;fontColor=#ffffff;strokeColor=#432D57;" parent="1" vertex="1">
          <mxGeometry x="540" y="2480" width="120" height="60" as="geometry" />
        </mxCell>
        <mxCell id="GWsue6pcty8NE5yQGUCx-53" value="Elemental Salt&lt;div&gt;ARCANA / FORM&lt;/div&gt;" style="rounded=1;whiteSpace=wrap;html=1;fillColor=#76608a;fontColor=#ffffff;strokeColor=#432D57;" parent="1" vertex="1">
          <mxGeometry x="540" y="2540" width="120" height="60" as="geometry" />
        </mxCell>
        <mxCell id="GWsue6pcty8NE5yQGUCx-54" value="Sulfur&lt;div&gt;FIRE / EVOKE&lt;/div&gt;" style="rounded=1;whiteSpace=wrap;html=1;fillColor=#76608a;fontColor=#ffffff;strokeColor=#432D57;" parent="1" vertex="1">
          <mxGeometry x="540" y="2600" width="120" height="60" as="geometry" />
        </mxCell>
        <mxCell id="GWsue6pcty8NE5yQGUCx-55" value="Bitumen&lt;div&gt;FORM / REGEN&lt;/div&gt;" style="rounded=1;whiteSpace=wrap;html=1;fillColor=#76608a;fontColor=#ffffff;strokeColor=#432D57;" parent="1" vertex="1">
          <mxGeometry x="540" y="2660" width="120" height="60" as="geometry" />
        </mxCell>
        <mxCell id="GWsue6pcty8NE5yQGUCx-56" value="Clay&lt;div&gt;FABRIM / FORM&lt;/div&gt;" style="rounded=1;whiteSpace=wrap;html=1;fillColor=#76608a;fontColor=#ffffff;strokeColor=#432D57;" parent="1" vertex="1">
          <mxGeometry x="540" y="2720" width="120" height="60" as="geometry" />
        </mxCell>
        <mxCell id="GWsue6pcty8NE5yQGUCx-57" value="Mercury&lt;div&gt;POISON / FABRIM&lt;/div&gt;" style="rounded=1;whiteSpace=wrap;html=1;fillColor=#76608a;fontColor=#ffffff;strokeColor=#432D57;" parent="1" vertex="1">
          <mxGeometry x="540" y="2780" width="120" height="60" as="geometry" />
        </mxCell>
        <mxCell id="GWsue6pcty8NE5yQGUCx-58" value="Wood Ash&lt;div&gt;IMMORT / FIRE&lt;/div&gt;" style="rounded=1;whiteSpace=wrap;html=1;fillColor=#76608a;fontColor=#ffffff;strokeColor=#432D57;" parent="1" vertex="1">
          <mxGeometry x="540" y="2840" width="120" height="60" as="geometry" />
        </mxCell>
        <mxCell id="GWsue6pcty8NE5yQGUCx-59" value="Bone Ash&lt;div&gt;MORTAL / FIRE&lt;/div&gt;" style="rounded=1;whiteSpace=wrap;html=1;fillColor=#76608a;fontColor=#ffffff;strokeColor=#432D57;" parent="1" vertex="1">
          <mxGeometry x="540" y="2900" width="120" height="60" as="geometry" />
        </mxCell>
        <mxCell id="GWsue6pcty8NE5yQGUCx-60" value="Water&lt;div&gt;WATER / FORM&lt;/div&gt;" style="rounded=1;whiteSpace=wrap;html=1;fillColor=#1ba1e2;fontColor=#ffffff;strokeColor=#006EAF;" parent="1" vertex="1">
          <mxGeometry x="700" y="80" width="120" height="60" as="geometry" />
        </mxCell>
        <mxCell id="GWsue6pcty8NE5yQGUCx-61" value="Distilled Water&lt;div&gt;WATER / DESIST&lt;/div&gt;" style="rounded=1;whiteSpace=wrap;html=1;fillColor=#1ba1e2;fontColor=#ffffff;strokeColor=#006EAF;" parent="1" vertex="1">
          <mxGeometry x="700" y="140" width="120" height="60" as="geometry" />
        </mxCell>
        <mxCell id="GWsue6pcty8NE5yQGUCx-62" value="Holy Water&lt;div&gt;WATER / DIVINE&lt;/div&gt;" style="rounded=1;whiteSpace=wrap;html=1;fillColor=#1ba1e2;fontColor=#ffffff;strokeColor=#006EAF;" parent="1" vertex="1">
          <mxGeometry x="700" y="200" width="120" height="60" as="geometry" />
        </mxCell>
        <mxCell id="GWsue6pcty8NE5yQGUCx-63" value="Crude Oil&lt;div&gt;FABRIM / DISEASE&lt;/div&gt;" style="rounded=1;whiteSpace=wrap;html=1;fillColor=#1ba1e2;fontColor=#ffffff;strokeColor=#006EAF;" parent="1" vertex="1">
          <mxGeometry x="700" y="260" width="120" height="60" as="geometry" />
        </mxCell>
        <mxCell id="GWsue6pcty8NE5yQGUCx-64" value="Fauna" style="rounded=0;whiteSpace=wrap;html=1;fillColor=#0050ef;fontColor=#ffffff;strokeColor=#001DBC;fontSize=32;" parent="1" vertex="1">
          <mxGeometry x="680" width="160" height="80" as="geometry" />
        </mxCell>
        <mxCell id="GWsue6pcty8NE5yQGUCx-65" value="Liquor&lt;div&gt;DEGEN / POISON&lt;/div&gt;" style="rounded=1;whiteSpace=wrap;html=1;fillColor=#1ba1e2;fontColor=#ffffff;strokeColor=#006EAF;" parent="1" vertex="1">
          <mxGeometry x="700" y="320" width="120" height="60" as="geometry" />
        </mxCell>
        <mxCell id="TQiM3KuTNwNXRwti3ItK-1" value="&lt;p style=&quot;line-height: 100%; font-size: 12px;&quot;&gt;&lt;span style=&quot;font-size: 12px;&quot;&gt;Alchemical Components are the ingredients and materials used in the process of creating an Alchemical Products. Each Component has a pair of Motifs - these influence the final product&#39;s effect.&lt;/span&gt;&lt;/p&gt;&lt;p style=&quot;line-height: 100%; font-size: 12px;&quot;&gt;&lt;span style=&quot;font-size: 12px;&quot;&gt;While many Motifs will enhance or at least fail to interact with others, there are some that will harm the potency of the final product or outright ruin it.&lt;/span&gt;&lt;/p&gt;" style="rounded=0;whiteSpace=wrap;html=1;fontSize=12;strokeColor=default;perimeterSpacing=0;" parent="1" vertex="1">
          <mxGeometry width="200" height="160" as="geometry" />
        </mxCell>
      </root>
    </mxGraphModel>
  </diagram>
  <diagram id="k9ZGFQ165plXBW5ce6MQ" name="Products">
    <mxGraphModel dx="1050" dy="717" grid="1" gridSize="10" guides="1" tooltips="1" connect="1" arrows="1" fold="1" page="1" pageScale="1" pageWidth="850" pageHeight="1100" math="0" shadow="0">
      <root>
        <mxCell id="0" />
        <mxCell id="1" parent="0" />
        <mxCell id="QrY68NTscfFFd7YdhEpJ-1" value="&lt;p style=&quot;line-height: 100%; font-size: 12px;&quot;&gt;&lt;font style=&quot;font-size: 12px;&quot;&gt;Alchemical Products are built wth a combination of purpose and knowledge. To make something, first and foremost you must know what you want to make, then it&#39;s motifs or requirements. Once you have your purpose and knowledge, you must apply it.&lt;/font&gt;&lt;/p&gt;&lt;p style=&quot;line-height: 90%; font-size: 12px;&quot;&gt;&lt;font style=&quot;font-size: 12px;&quot;&gt;Alchemical Grades are how effective or potent your Product is. The Grade your Product recieves is based on your combined ingredients and your applied process; be it an Alchemists Tool&#39;s check, an Herbalists Tool&#39;s check, or a simple Survival check, your process will affect how potent your Product is.&lt;/font&gt;&lt;/p&gt;&lt;p style=&quot;line-height: 90%; font-size: 12px;&quot;&gt;&lt;font style=&quot;font-size: 12px;&quot;&gt;Apprentice Grade ranges from 8-13, Novice Grade ranges from 14-19, Journeymen Grade ranges from 20-25, Expert Grade ranges from 26-31, and Master Grade is any result of 32 or higher.&lt;/font&gt;&lt;/p&gt;" style="rounded=0;whiteSpace=wrap;html=1;fontSize=32;" parent="1" vertex="1">
          <mxGeometry x="40" y="40" width="320" height="240" as="geometry" />
        </mxCell>
        <mxCell id="t66hqcqQQS7xa3DbbdRv-2" value="Alchemist&#39;s Produce" style="rounded=0;whiteSpace=wrap;html=1;fontSize=18;fillColor=#0050ef;fontColor=#ffffff;strokeColor=#001DBC;" parent="1" vertex="1">
          <mxGeometry x="400" y="40" width="400" height="80" as="geometry" />
        </mxCell>
        <mxCell id="t66hqcqQQS7xa3DbbdRv-3" value="&lt;u&gt;&lt;b&gt;Philosopher&#39;s Stone (+8 ANY / ALL Potency)&lt;/b&gt;&lt;/u&gt;&lt;div&gt;Solid Transmutation Material ~ 3,520,000sp / unit&lt;/div&gt;&lt;div&gt;&lt;br&gt;&lt;/div&gt;&lt;div&gt;&lt;i&gt;The greatest material enhancer an alchemist can own.&lt;/i&gt;&lt;/div&gt;&lt;div&gt;&lt;i&gt;&lt;br&gt;&lt;/i&gt;&lt;/div&gt;&lt;div&gt;&lt;i&gt;When properly creating Red Water or Yellow Powder, the Philosopher&#39;s Stone is not consumed.&lt;/i&gt;&lt;/div&gt;" style="rounded=1;whiteSpace=wrap;html=1;fillColor=#e51400;fontColor=#ffffff;strokeColor=#B20000;" parent="1" vertex="1">
          <mxGeometry x="400" y="120" width="400" height="160" as="geometry" />
        </mxCell>
        <mxCell id="t66hqcqQQS7xa3DbbdRv-4" value="&lt;b&gt;&lt;u&gt;Red Water (+4 ANY / ALL Potency)&lt;/u&gt;&lt;/b&gt;&lt;div&gt;Liquid Transmutation Material ~ 600sp / 1/16gal.&lt;/div&gt;&lt;div&gt;&lt;br&gt;&lt;/div&gt;&lt;div&gt;&lt;i&gt;The most potent liquid base in alchemy. Used as high-grade liquid base or as component in itself.&amp;nbsp;&lt;/i&gt;&lt;/div&gt;" style="rounded=1;whiteSpace=wrap;html=1;fillColor=#a20025;strokeColor=#6F0000;fontColor=#ffffff;" parent="1" vertex="1">
          <mxGeometry x="400" y="280" width="200" height="160" as="geometry" />
        </mxCell>
        <mxCell id="t66hqcqQQS7xa3DbbdRv-5" value="&lt;b&gt;&lt;u&gt;Yellow Powder (+2 ANY / ALL Potency)&lt;/u&gt;&lt;/b&gt;&lt;div&gt;Solid Transmutation Material ~ 150sp / ounce&lt;/div&gt;&lt;div&gt;&lt;br&gt;&lt;/div&gt;&lt;div&gt;&lt;i&gt;The most potent solid base in alchemy. Used as high-grade solid base or as component in itself.&amp;nbsp;&lt;/i&gt;&lt;/div&gt;" style="rounded=1;whiteSpace=wrap;html=1;fillColor=#f0a30a;fontColor=#000000;strokeColor=#BD7000;" parent="1" vertex="1">
          <mxGeometry x="400" y="440" width="200" height="160" as="geometry" />
        </mxCell>
        <mxCell id="t66hqcqQQS7xa3DbbdRv-6" value="Alchemist&#39;s Equipment" style="rounded=0;whiteSpace=wrap;html=1;fontSize=18;fillColor=#cce5ff;strokeColor=#36393d;fontColor=#000000;" parent="1" vertex="1">
          <mxGeometry x="800" y="40" width="400" height="80" as="geometry" />
        </mxCell>
        <mxCell id="t66hqcqQQS7xa3DbbdRv-7" value="&lt;u&gt;&lt;b&gt;Enchanter&#39;s Acid (+4 DEGEN / FORM)&lt;/b&gt;&lt;/u&gt;&lt;div&gt;Liquid Evocation Material&amp;nbsp;&lt;span style=&quot;background-color: initial;&quot;&gt;~ 40sp / 1/16gal.&lt;/span&gt;&lt;/div&gt;&lt;div&gt;&lt;br&gt;&lt;/div&gt;&lt;div&gt;&lt;i&gt;The most potent acid Alaturmenian alchemists have been able to make.&lt;/i&gt;&lt;/div&gt;&lt;div&gt;&lt;i&gt;&lt;br&gt;&lt;/i&gt;&lt;/div&gt;&lt;div&gt;&lt;i&gt;Typically used in the creation of permanent Rune Patches.&lt;/i&gt;&lt;/div&gt;" style="rounded=1;whiteSpace=wrap;html=1;fillColor=#60a917;fontColor=#ffffff;strokeColor=#2D7600;" parent="1" vertex="1">
          <mxGeometry x="600" y="280" width="200" height="160" as="geometry" />
        </mxCell>
        <mxCell id="t66hqcqQQS7xa3DbbdRv-8" value="Potions" style="rounded=0;whiteSpace=wrap;html=1;fontSize=18;fillColor=#6d8764;fontColor=#ffffff;strokeColor=#3A5431;" parent="1" vertex="1">
          <mxGeometry x="1200" y="40" width="400" height="80" as="geometry" />
        </mxCell>
        <mxCell id="t66hqcqQQS7xa3DbbdRv-9" value="Poisons" style="rounded=0;whiteSpace=wrap;html=1;fontSize=18;" parent="1" vertex="1">
          <mxGeometry x="1600" y="40" width="400" height="80" as="geometry" />
        </mxCell>
        <mxCell id="lYSTAF-k672k1XRqQjgE-1" value="&lt;u&gt;&lt;b&gt;Auspex Lense (+3 ARCANA / DIVINE)&lt;/b&gt;&lt;/u&gt;&lt;div&gt;Solid Divination Equipment ~ 3,750sp / unit&lt;/div&gt;" style="rounded=1;whiteSpace=wrap;html=1;fillColor=#d80073;fontColor=#ffffff;strokeColor=#FFD966;strokeWidth=3;" parent="1" vertex="1">
          <mxGeometry x="1000" y="120" width="200" height="160" as="geometry" />
        </mxCell>
        <mxCell id="lYSTAF-k672k1XRqQjgE-2" value="Vices" style="rounded=0;whiteSpace=wrap;html=1;fontSize=18;fillColor=#e3c800;fontColor=#000000;strokeColor=#B09500;" parent="1" vertex="1">
          <mxGeometry x="2000" y="40" width="400" height="80" as="geometry" />
        </mxCell>
        <mxCell id="lYSTAF-k672k1XRqQjgE-3" value="Oils" style="rounded=0;whiteSpace=wrap;html=1;fontSize=18;fillColor=#647687;fontColor=#ffffff;strokeColor=#314354;" parent="1" vertex="1">
          <mxGeometry x="2400" y="40" width="400" height="80" as="geometry" />
        </mxCell>
        <mxCell id="lYSTAF-k672k1XRqQjgE-4" value="&lt;u&gt;&lt;b&gt;Elven Wine ()&lt;/b&gt;&lt;/u&gt;&lt;div&gt;Liquid Enchanted Vice ~ 30sp / gal.&lt;/div&gt;" style="rounded=1;whiteSpace=wrap;html=1;fillColor=#d80073;fontColor=#ffffff;strokeColor=#A50040;" parent="1" vertex="1">
          <mxGeometry x="2000" y="120" width="200" height="160" as="geometry" />
        </mxCell>
        <mxCell id="lYSTAF-k672k1XRqQjgE-5" value="&lt;u&gt;&lt;b&gt;Liquid Light (+3 LIGHT / EVOKE)&lt;/b&gt;&lt;/u&gt;&lt;div&gt;Liquid Enchantment Material ~ 7sp / 1/16 gal.&lt;/div&gt;&lt;div&gt;&lt;br&gt;&lt;/div&gt;&lt;div&gt;&lt;i&gt;A &quot;purified&quot; elemental light in the form of a liquid. Brightness increases with potency and irritation.&lt;/i&gt;&lt;/div&gt;" style="rounded=1;whiteSpace=wrap;html=1;fillColor=#e3c800;fontColor=#000000;strokeColor=#B09500;" parent="1" vertex="1">
          <mxGeometry x="400" y="600" width="200" height="160" as="geometry" />
        </mxCell>
        <mxCell id="lYSTAF-k672k1XRqQjgE-6" value="&lt;u&gt;&lt;b&gt;Liquid Fear (+ 3 MORTAL / ILLUSION)&lt;br&gt;&lt;/b&gt;&lt;/u&gt;&lt;div&gt;&lt;span style=&quot;background-color: initial;&quot;&gt;Liquid Enchantment Material&lt;/span&gt;&amp;nbsp;~ 14sp / 1/16 gal.&lt;/div&gt;" style="rounded=1;whiteSpace=wrap;html=1;fillColor=#6a00ff;strokeColor=#3700CC;fontColor=#ffffff;" parent="1" vertex="1">
          <mxGeometry x="600" y="600" width="200" height="160" as="geometry" />
        </mxCell>
        <mxCell id="lYSTAF-k672k1XRqQjgE-7" value="&lt;u&gt;&lt;b&gt;Liquid Joy (+3 MORTAL / EVOKE)&lt;br&gt;&lt;/b&gt;&lt;/u&gt;&lt;div&gt;&lt;span style=&quot;background-color: initial;&quot;&gt;Liquid Enchantment Material&lt;/span&gt;&amp;nbsp;~ 24sp / 1/16 gal.&lt;/div&gt;" style="rounded=1;whiteSpace=wrap;html=1;fillColor=#6d8764;strokeColor=#3A5431;fontColor=#ffffff;" parent="1" vertex="1">
          <mxGeometry x="400" y="760" width="200" height="160" as="geometry" />
        </mxCell>
        <mxCell id="lYSTAF-k672k1XRqQjgE-8" value="&lt;u&gt;&lt;b&gt;Liquid Calm (+3 MORTAL / CHARM)&lt;br&gt;&lt;/b&gt;&lt;/u&gt;&lt;div&gt;&lt;span style=&quot;background-color: initial;&quot;&gt;Liquid Enchantment Material&lt;/span&gt;&amp;nbsp;~ 14sp / 1/16 gal.&lt;/div&gt;" style="rounded=1;whiteSpace=wrap;html=1;fillColor=#1ba1e2;strokeColor=#006EAF;fontColor=#ffffff;" parent="1" vertex="1">
          <mxGeometry x="600" y="760" width="200" height="160" as="geometry" />
        </mxCell>
        <mxCell id="lYSTAF-k672k1XRqQjgE-9" value="&lt;u&gt;&lt;b&gt;Potion of Healing ()&lt;br&gt;&lt;/b&gt;&lt;/u&gt;&lt;div&gt;&lt;span style=&quot;background-color: initial;&quot;&gt;Liquid Necromancy Potion&lt;/span&gt;&amp;nbsp;~ 125sp / 1/16 gal.&lt;/div&gt;" style="rounded=1;whiteSpace=wrap;html=1;fillColor=#a20025;strokeColor=#6F0000;fontColor=#ffffff;" parent="1" vertex="1">
          <mxGeometry x="1200" y="120" width="200" height="160" as="geometry" />
        </mxCell>
        <mxCell id="lYSTAF-k672k1XRqQjgE-10" value="&lt;u&gt;&lt;b&gt;Potion of Vitality ()&lt;br&gt;&lt;/b&gt;&lt;/u&gt;&lt;div&gt;&lt;span style=&quot;background-color: initial;&quot;&gt;Liquid Abjuration Potion&lt;/span&gt;&amp;nbsp;~ 60sp / 1/16 gal.&lt;/div&gt;" style="rounded=1;whiteSpace=wrap;html=1;fillColor=#647687;strokeColor=#314354;fontColor=#ffffff;" parent="1" vertex="1">
          <mxGeometry x="1400" y="120" width="200" height="160" as="geometry" />
        </mxCell>
        <mxCell id="lYSTAF-k672k1XRqQjgE-11" value="&lt;u&gt;&lt;b&gt;Potion of Cure ()&lt;br&gt;&lt;/b&gt;&lt;/u&gt;&lt;div&gt;&lt;span style=&quot;background-color: initial;&quot;&gt;Liquid Necromancy Potion&lt;/span&gt;&amp;nbsp;~ 100sp / 1/16 gal.&lt;/div&gt;" style="rounded=1;whiteSpace=wrap;html=1;fillColor=#76608a;strokeColor=#432D57;fontColor=#ffffff;" parent="1" vertex="1">
          <mxGeometry x="1200" y="280" width="200" height="160" as="geometry" />
        </mxCell>
        <mxCell id="lYSTAF-k672k1XRqQjgE-12" value="&lt;u&gt;&lt;b&gt;Potion of Resistance ()&lt;br&gt;&lt;/b&gt;&lt;/u&gt;&lt;div&gt;&lt;span style=&quot;background-color: initial;&quot;&gt;Liquid Abjuration Potion&lt;/span&gt;&amp;nbsp;~ 175sp / 1/16 gal.&lt;/div&gt;" style="rounded=1;whiteSpace=wrap;html=1;fillColor=#0050ef;strokeColor=#001DBC;fontColor=#ffffff;" parent="1" vertex="1">
          <mxGeometry x="1400" y="280" width="200" height="160" as="geometry" />
        </mxCell>
        <mxCell id="lYSTAF-k672k1XRqQjgE-13" value="&lt;u&gt;&lt;b&gt;Potion of Elemental Resistance ()&lt;br&gt;&lt;/b&gt;&lt;/u&gt;&lt;div&gt;&lt;span style=&quot;background-color: initial;&quot;&gt;Liquid Abjuration Potion&lt;/span&gt;&amp;nbsp;~ 250sp / 1/16 gal.&lt;/div&gt;" style="rounded=1;whiteSpace=wrap;html=1;fillColor=#6a00ff;strokeColor=#3700CC;fontColor=#ffffff;" parent="1" vertex="1">
          <mxGeometry x="1400" y="440" width="200" height="160" as="geometry" />
        </mxCell>
        <mxCell id="lYSTAF-k672k1XRqQjgE-14" value="&lt;u&gt;&lt;b&gt;Potion of Hardskin ()&lt;br&gt;&lt;/b&gt;&lt;/u&gt;&lt;div&gt;&lt;span style=&quot;background-color: initial;&quot;&gt;Liquid Abjuration Potion&lt;/span&gt;&amp;nbsp;~ 85sp / 1/16 gal.&lt;/div&gt;" style="rounded=1;whiteSpace=wrap;html=1;fillColor=#647687;strokeColor=#314354;fontColor=#ffffff;" parent="1" vertex="1">
          <mxGeometry x="1400" y="600" width="200" height="160" as="geometry" />
        </mxCell>
        <mxCell id="lYSTAF-k672k1XRqQjgE-15" value="&lt;u&gt;&lt;b&gt;Liquid Rage (+3 MORTAL / BANE)&lt;br&gt;&lt;/b&gt;&lt;/u&gt;&lt;div&gt;&lt;span style=&quot;background-color: initial;&quot;&gt;Liquid Enchantment Material&lt;/span&gt;&amp;nbsp;~ 40sp / 1/16 gal.&lt;/div&gt;" style="rounded=1;whiteSpace=wrap;html=1;fillColor=#a20025;strokeColor=#6F0000;fontColor=#ffffff;" parent="1" vertex="1">
          <mxGeometry x="400" y="920" width="200" height="160" as="geometry" />
        </mxCell>
        <mxCell id="lYSTAF-k672k1XRqQjgE-16" value="&lt;u&gt;&lt;b&gt;Liquid Love (+3 MORTAL / ILLUS)&lt;br&gt;&lt;/b&gt;&lt;/u&gt;&lt;div&gt;&lt;span style=&quot;background-color: initial;&quot;&gt;Liquid Enchantment Material&lt;/span&gt;&amp;nbsp;~ 400sp / 1/16 gal.&lt;/div&gt;" style="rounded=1;whiteSpace=wrap;html=1;fillColor=#d80073;strokeColor=#A50040;fontColor=#ffffff;" parent="1" vertex="1">
          <mxGeometry x="600" y="920" width="200" height="160" as="geometry" />
        </mxCell>
        <mxCell id="lYSTAF-k672k1XRqQjgE-17" value="&lt;u&gt;&lt;b&gt;Liquid Greed (+3 MORTAL / CHARM)&lt;br&gt;&lt;/b&gt;&lt;/u&gt;&lt;div&gt;&lt;span style=&quot;background-color: initial;&quot;&gt;Liquid Enchantment Material&lt;/span&gt;&amp;nbsp;~ 135sp / 1/16 gal.&lt;/div&gt;" style="rounded=1;whiteSpace=wrap;html=1;fillColor=#f0a30a;strokeColor=#BD7000;fontColor=#000000;" parent="1" vertex="1">
          <mxGeometry x="400" y="1080" width="200" height="160" as="geometry" />
        </mxCell>
        <mxCell id="lYSTAF-k672k1XRqQjgE-18" value="&lt;u&gt;&lt;b&gt;Potion of Enhancement ()&lt;br&gt;&lt;/b&gt;&lt;/u&gt;&lt;div&gt;&lt;span style=&quot;background-color: initial;&quot;&gt;Liquid Enchantment Potion&lt;/span&gt;&amp;nbsp;~ 180sp / 1/16 gal.&lt;/div&gt;" style="rounded=1;whiteSpace=wrap;html=1;fillColor=#f0a30a;strokeColor=#BD7000;fontColor=#000000;" parent="1" vertex="1">
          <mxGeometry x="1200" y="440" width="200" height="160" as="geometry" />
        </mxCell>
        <mxCell id="lYSTAF-k672k1XRqQjgE-20" value="&lt;u&gt;&lt;b&gt;Potion of Detection ()&lt;br&gt;&lt;/b&gt;&lt;/u&gt;&lt;div&gt;&lt;span style=&quot;background-color: initial;&quot;&gt;Liquid Divination Potion&lt;/span&gt;&amp;nbsp;~ 300sp / 1/16 gal.&lt;/div&gt;" style="rounded=1;whiteSpace=wrap;html=1;fillColor=#6a00ff;strokeColor=#3700CC;fontColor=#ffffff;" parent="1" vertex="1">
          <mxGeometry x="1200" y="600" width="200" height="160" as="geometry" />
        </mxCell>
        <mxCell id="lYSTAF-k672k1XRqQjgE-21" value="&lt;u&gt;&lt;b&gt;Potion of Sense ()&lt;br&gt;&lt;/b&gt;&lt;/u&gt;&lt;div&gt;&lt;span style=&quot;background-color: initial;&quot;&gt;Liquid Divination Potion&lt;/span&gt;&amp;nbsp;~ 235sp / 1/16 gal.&lt;/div&gt;" style="rounded=1;whiteSpace=wrap;html=1;fillColor=#B266FF;strokeColor=#432D57;fontColor=#ffffff;" parent="1" vertex="1">
          <mxGeometry x="1200" y="760" width="200" height="160" as="geometry" />
        </mxCell>
        <mxCell id="lYSTAF-k672k1XRqQjgE-22" value="&lt;u&gt;&lt;b&gt;Potion of Understanding ()&lt;br&gt;&lt;/b&gt;&lt;/u&gt;&lt;div&gt;&lt;span style=&quot;background-color: initial;&quot;&gt;Liquid Divination Potion&lt;/span&gt;&amp;nbsp;~ 800sp / 1/16 gal.&lt;/div&gt;" style="rounded=1;whiteSpace=wrap;html=1;fillColor=#CC99FF;strokeColor=#3700CC;fontColor=#ffffff;" parent="1" vertex="1">
          <mxGeometry x="1200" y="920" width="200" height="160" as="geometry" />
        </mxCell>
        <mxCell id="lYSTAF-k672k1XRqQjgE-23" value="&lt;u&gt;&lt;b&gt;Potion of Haste ()&lt;br&gt;&lt;/b&gt;&lt;/u&gt;&lt;div&gt;&lt;span style=&quot;background-color: initial;&quot;&gt;Liquid Enchantment Potion&lt;/span&gt;&amp;nbsp;~ 250sp / 1/16 gal.&lt;/div&gt;" style="rounded=1;whiteSpace=wrap;html=1;fillColor=#f0a30a;strokeColor=#BD7000;fontColor=#000000;" parent="1" vertex="1">
          <mxGeometry x="1400" y="760" width="200" height="160" as="geometry" />
        </mxCell>
        <mxCell id="lYSTAF-k672k1XRqQjgE-24" value="&lt;u&gt;&lt;b&gt;Potion of Dragon&#39;s Breath ()&lt;br&gt;&lt;/b&gt;&lt;/u&gt;&lt;div&gt;&lt;span style=&quot;background-color: initial;&quot;&gt;Liquid Conjuration Potion&lt;/span&gt;&amp;nbsp;~ 150sp / 1/16 gal.&lt;/div&gt;" style="rounded=1;whiteSpace=wrap;html=1;fillColor=#a20025;strokeColor=#6F0000;fontColor=#ffffff;" parent="1" vertex="1">
          <mxGeometry x="1400" y="920" width="200" height="160" as="geometry" />
        </mxCell>
        <mxCell id="lYSTAF-k672k1XRqQjgE-25" value="&lt;u&gt;&lt;b&gt;Potion of Shadow Form ()&lt;br&gt;&lt;/b&gt;&lt;/u&gt;&lt;div&gt;&lt;span style=&quot;background-color: initial;&quot;&gt;Liquid Transmutation Potion&lt;/span&gt;&amp;nbsp;~ 250sp / 1/16 gal.&lt;/div&gt;" style="rounded=1;whiteSpace=wrap;html=1;" parent="1" vertex="1">
          <mxGeometry x="1200" y="1080" width="200" height="160" as="geometry" />
        </mxCell>
        <mxCell id="lYSTAF-k672k1XRqQjgE-26" value="&lt;u&gt;&lt;b&gt;Potion of Gaseous Form ()&lt;/b&gt;&lt;br&gt;&lt;/u&gt;&lt;div&gt;&lt;span style=&quot;background-color: initial;&quot;&gt;Liquid Transmutation Potion&lt;/span&gt;&amp;nbsp;~ 130sp / 1/16 gal.&lt;/div&gt;" style="rounded=1;whiteSpace=wrap;html=1;fillColor=#647687;fontColor=#ffffff;strokeColor=#314354;" parent="1" vertex="1">
          <mxGeometry x="1400" y="1080" width="200" height="160" as="geometry" />
        </mxCell>
        <mxCell id="lYSTAF-k672k1XRqQjgE-27" value="&lt;u&gt;&lt;b&gt;Potion of Aquatic Form ()&lt;/b&gt;&lt;br&gt;&lt;/u&gt;&lt;div&gt;&lt;span style=&quot;background-color: initial;&quot;&gt;Liquid Transmutation Potion&lt;/span&gt;&amp;nbsp;~ 135sp / 1/16 gal.&lt;/div&gt;" style="rounded=1;whiteSpace=wrap;html=1;fillColor=#0050ef;fontColor=#ffffff;strokeColor=#001DBC;" parent="1" vertex="1">
          <mxGeometry x="1400" y="1240" width="200" height="160" as="geometry" />
        </mxCell>
        <mxCell id="lYSTAF-k672k1XRqQjgE-28" value="&lt;u&gt;&lt;b&gt;Potion of Free Movement ()&lt;/b&gt;&lt;br&gt;&lt;/u&gt;&lt;div&gt;&lt;span style=&quot;background-color: initial;&quot;&gt;Liquid Transmutation Potion&lt;/span&gt;&amp;nbsp;~ 170sp / 1/16 gal.&lt;/div&gt;" style="rounded=1;whiteSpace=wrap;html=1;fillColor=#60a917;fontColor=#ffffff;strokeColor=#2D7600;" parent="1" vertex="1">
          <mxGeometry x="1200" y="1240" width="200" height="160" as="geometry" />
        </mxCell>
        <mxCell id="lYSTAF-k672k1XRqQjgE-29" value="&lt;u&gt;&lt;b&gt;High-Smiths Oil ()&lt;/b&gt;&lt;/u&gt;&lt;div&gt;Semi-solid Evocation Oil&amp;nbsp;&lt;span style=&quot;background-color: initial;&quot;&gt;~ 600sp / lb.&lt;/span&gt;&lt;/div&gt;" style="rounded=1;whiteSpace=wrap;html=1;fillColor=#a20025;fontColor=#ffffff;strokeColor=#6F0000;" parent="1" vertex="1">
          <mxGeometry x="2400" y="120" width="200" height="160" as="geometry" />
        </mxCell>
        <mxCell id="lYSTAF-k672k1XRqQjgE-30" value="&lt;u&gt;&lt;b&gt;Icing Oil ()&lt;br&gt;&lt;/b&gt;&lt;/u&gt;&lt;div&gt;&lt;span style=&quot;background-color: initial;&quot;&gt;Semi-solid Evocation Oil&lt;/span&gt;&amp;nbsp;~ 600sp / lb.&lt;/div&gt;" style="rounded=1;whiteSpace=wrap;html=1;fillColor=#1ba1e2;fontColor=#ffffff;strokeColor=#006EAF;" parent="1" vertex="1">
          <mxGeometry x="2600" y="120" width="200" height="160" as="geometry" />
        </mxCell>
        <mxCell id="lYSTAF-k672k1XRqQjgE-31" value="&lt;u&gt;&lt;b&gt;Miner&#39;s Savior (+1 FORM / EARTH)&lt;br&gt;&lt;/b&gt;&lt;/u&gt;&lt;div&gt;&lt;span style=&quot;background-color: initial;&quot;&gt;Semi-solid Transmutation Equipment&lt;/span&gt;&amp;nbsp;~ 15sp / oz.&lt;/div&gt;" style="rounded=1;whiteSpace=wrap;html=1;" parent="1" vertex="1">
          <mxGeometry x="1000" y="280" width="200" height="160" as="geometry" />
        </mxCell>
        <mxCell id="lYSTAF-k672k1XRqQjgE-32" value="&lt;u&gt;&lt;b&gt;Assassin&#39;s Slick (+1 WATER / ABJURE)&lt;br&gt;&lt;/b&gt;&lt;/u&gt;&lt;div&gt;&lt;span style=&quot;background-color: initial;&quot;&gt;Semi-solid Transmutation Equipment&lt;/span&gt;&amp;nbsp;~ 18sp / oz.&lt;/div&gt;" style="rounded=1;whiteSpace=wrap;html=1;fillColor=#808080;fontColor=#ffffff;strokeColor=#314354;" parent="1" vertex="1">
          <mxGeometry x="800" y="280" width="200" height="160" as="geometry" />
        </mxCell>
        <mxCell id="lYSTAF-k672k1XRqQjgE-33" value="&lt;u&gt;&lt;b&gt;Secret Ink (+1 ILLUS / FORM)&lt;br&gt;&lt;/b&gt;&lt;/u&gt;&lt;div&gt;&lt;span style=&quot;background-color: initial;&quot;&gt;Liquid Enchantment Equipment&lt;/span&gt;&amp;nbsp;~ 3sp / 1/16 gal.&lt;/div&gt;" style="rounded=1;whiteSpace=wrap;html=1;" parent="1" vertex="1">
          <mxGeometry x="800" y="120" width="200" height="160" as="geometry" />
        </mxCell>
        <mxCell id="lYSTAF-k672k1XRqQjgE-34" value="&lt;u&gt;&lt;b&gt;Traditional Poison ()&lt;/b&gt;&lt;/u&gt;&lt;div&gt;Liquid Evocation Poison ~ 10sp / 1/16 gal.&lt;/div&gt;" style="rounded=1;whiteSpace=wrap;html=1;fillColor=#60a917;strokeColor=#2D7600;fontColor=#ffffff;" parent="1" vertex="1">
          <mxGeometry x="1600" y="120" width="200" height="160" as="geometry" />
        </mxCell>
        <mxCell id="lYSTAF-k672k1XRqQjgE-35" value="&lt;u&gt;&lt;b&gt;Paralitic Poison ()&lt;/b&gt;&lt;/u&gt;&lt;div&gt;Liquid Evocation Poison ~ 30sp /&amp;nbsp;&lt;span style=&quot;background-color: initial;&quot;&gt;1/16&lt;/span&gt;&lt;span style=&quot;background-color: initial;&quot;&gt;&amp;nbsp;&lt;/span&gt;&lt;span style=&quot;background-color: initial;&quot;&gt;&amp;nbsp;gal.&lt;/span&gt;&lt;/div&gt;" style="rounded=1;whiteSpace=wrap;html=1;fillColor=#e3c800;strokeColor=#B09500;fontColor=#000000;" parent="1" vertex="1">
          <mxGeometry x="1800" y="120" width="200" height="160" as="geometry" />
        </mxCell>
        <mxCell id="lYSTAF-k672k1XRqQjgE-36" value="&lt;u&gt;&lt;b&gt;Impairment Poison ()&lt;/b&gt;&lt;/u&gt;&lt;div&gt;Liquid Evocation Poison ~ 15sp /&amp;nbsp;&lt;span style=&quot;background-color: initial;&quot;&gt;1/16&lt;/span&gt;&lt;span style=&quot;background-color: initial;&quot;&gt;&amp;nbsp;gal.&lt;/span&gt;&lt;/div&gt;" style="rounded=1;whiteSpace=wrap;html=1;fillColor=#76608a;strokeColor=#432D57;fontColor=#ffffff;" parent="1" vertex="1">
          <mxGeometry x="1800" y="280" width="200" height="160" as="geometry" />
        </mxCell>
        <mxCell id="lYSTAF-k672k1XRqQjgE-37" value="&lt;u&gt;&lt;b&gt;King&#39;s Last Drink ()&lt;/b&gt;&lt;/u&gt;&lt;div&gt;Liquid Evocation Poison ~ 45sp / 1/16 gal.&lt;/div&gt;" style="rounded=1;whiteSpace=wrap;html=1;fillColor=#6600CC;strokeColor=#432D57;fontColor=#ffffff;" parent="1" vertex="1">
          <mxGeometry x="1600" y="280" width="200" height="160" as="geometry" />
        </mxCell>
        <mxCell id="lYSTAF-k672k1XRqQjgE-38" value="&lt;u&gt;&lt;b&gt;Stink ()&lt;/b&gt;&lt;/u&gt;&lt;div&gt;Gas Evocation Poison ~ 4sp / 1/16 gal.&lt;/div&gt;" style="rounded=1;whiteSpace=wrap;html=1;fillColor=#003300;strokeColor=#2D7600;fontColor=#ffffff;" parent="1" vertex="1">
          <mxGeometry x="1600" y="440" width="200" height="160" as="geometry" />
        </mxCell>
        <mxCell id="lYSTAF-k672k1XRqQjgE-39" value="&lt;u&gt;&lt;b&gt;Royal Water (+3 DEGEN / FABRIM)&lt;/b&gt;&lt;/u&gt;&lt;div&gt;Liquid Evocation Acid&amp;nbsp;&lt;span style=&quot;background-color: initial;&quot;&gt;~ 18sp / 1/16gal.&lt;/span&gt;&lt;/div&gt;&lt;div&gt;&lt;span style=&quot;background-color: initial;&quot;&gt;&lt;br&gt;&lt;/span&gt;&lt;/div&gt;&lt;div&gt;&lt;i&gt;A powerful acid that is both easy to work with and to create.&lt;/i&gt;&lt;/div&gt;&lt;div&gt;&lt;i&gt;&lt;br&gt;&lt;/i&gt;&lt;/div&gt;&lt;div&gt;&lt;i&gt;Typically used in the creation of Rune Patches.&lt;/i&gt;&lt;/div&gt;" style="rounded=1;whiteSpace=wrap;html=1;fillColor=#00CC66;fontColor=#ffffff;strokeColor=#2D7600;" parent="1" vertex="1">
          <mxGeometry x="600" y="440" width="200" height="160" as="geometry" />
        </mxCell>
        <mxCell id="lYSTAF-k672k1XRqQjgE-40" value="&lt;u&gt;&lt;b&gt;Dwarven Grease ()&lt;br&gt;&lt;/b&gt;&lt;/u&gt;&lt;div&gt;&lt;span style=&quot;background-color: initial;&quot;&gt;Semi-solid Abjuration Oil&lt;/span&gt;&amp;nbsp;~ 20sp / lb.&lt;/div&gt;" style="rounded=1;whiteSpace=wrap;html=1;fillColor=#a0522d;fontColor=#ffffff;strokeColor=#6D1F00;" parent="1" vertex="1">
          <mxGeometry x="2400" y="280" width="200" height="160" as="geometry" />
        </mxCell>
        <mxCell id="lYSTAF-k672k1XRqQjgE-41" value="&lt;u&gt;&lt;b&gt;Scar Balm ()&lt;br&gt;&lt;/b&gt;&lt;/u&gt;&lt;div&gt;&lt;span style=&quot;background-color: initial;&quot;&gt;Semi-solid Necromancy Oil&lt;/span&gt;&amp;nbsp;~ 12sp / lb.&lt;/div&gt;" style="rounded=1;whiteSpace=wrap;html=1;fillColor=#fa6800;fontColor=#000000;strokeColor=#C73500;" parent="1" vertex="1">
          <mxGeometry x="2600" y="280" width="200" height="160" as="geometry" />
        </mxCell>
        <mxCell id="lYSTAF-k672k1XRqQjgE-43" value="&lt;u&gt;&lt;b&gt;Heamox Balm ()&lt;br&gt;&lt;/b&gt;&lt;/u&gt;&lt;div&gt;&lt;span style=&quot;background-color: initial;&quot;&gt;Semi-solid Necromancy Oil&lt;/span&gt;&amp;nbsp;~ 15sp / lb.&lt;/div&gt;" style="rounded=1;whiteSpace=wrap;html=1;fillColor=#FF9933;fontColor=#000000;strokeColor=#C73500;" parent="1" vertex="1">
          <mxGeometry x="2600" y="440" width="200" height="160" as="geometry" />
        </mxCell>
        <mxCell id="lYSTAF-k672k1XRqQjgE-44" value="&lt;u&gt;&lt;b&gt;Huumpo ()&lt;/b&gt;&lt;/u&gt;&lt;div&gt;Semi-solid Evocation Oil&amp;nbsp;&lt;span style=&quot;background-color: initial;&quot;&gt;~ 7sp / lb.&lt;/span&gt;&lt;/div&gt;" style="rounded=1;whiteSpace=wrap;html=1;fillColor=#a20025;fontColor=#ffffff;strokeColor=#6F0000;" parent="1" vertex="1">
          <mxGeometry x="2400" y="440" width="200" height="160" as="geometry" />
        </mxCell>
        <mxCell id="lYSTAF-k672k1XRqQjgE-46" value="&lt;u&gt;&lt;b&gt;Alchemical Clay (+1 ARCANA / EVOKE)&lt;br&gt;&lt;/b&gt;&lt;/u&gt;&lt;div&gt;&lt;span style=&quot;background-color: initial;&quot;&gt;Solid Transmutation Material&lt;/span&gt;&amp;nbsp;~ 16sp / lb.&lt;/div&gt;" style="rounded=1;whiteSpace=wrap;html=1;fillColor=#647687;strokeColor=#314354;fontColor=#ffffff;" parent="1" vertex="1">
          <mxGeometry x="800" y="760" width="200" height="160" as="geometry" />
        </mxCell>
        <mxCell id="lYSTAF-k672k1XRqQjgE-47" value="&lt;u&gt;&lt;b&gt;Alchemical Fiber (+1 ABJURE / REGEN)&lt;br&gt;&lt;/b&gt;&lt;/u&gt;&lt;div&gt;&lt;span style=&quot;background-color: initial;&quot;&gt;Solid Transmutation Material&lt;/span&gt;&amp;nbsp;~ 20sp / sq yd.&lt;/div&gt;" style="rounded=1;whiteSpace=wrap;html=1;fillColor=#6d8764;strokeColor=#3A5431;fontColor=#ffffff;" parent="1" vertex="1">
          <mxGeometry x="1000" y="600" width="200" height="160" as="geometry" />
        </mxCell>
        <mxCell id="lYSTAF-k672k1XRqQjgE-49" value="&lt;u&gt;&lt;b&gt;Alchemical Leather (+1 SPIRIT / ABJURE)&lt;br&gt;&lt;/b&gt;&lt;/u&gt;&lt;div&gt;&lt;span style=&quot;background-color: initial;&quot;&gt;Solid Abjuration Material&lt;/span&gt;&amp;nbsp;~ 28sp / sq yd.&lt;/div&gt;" style="rounded=1;whiteSpace=wrap;html=1;fillColor=#a0522d;strokeColor=#6D1F00;fontColor=#ffffff;" parent="1" vertex="1">
          <mxGeometry x="1000" y="440" width="200" height="160" as="geometry" />
        </mxCell>
        <mxCell id="lYSTAF-k672k1XRqQjgE-50" value="&lt;u&gt;&lt;b&gt;Elvenfiber (+2 EVOKE / ABJURE)&lt;br&gt;&lt;/b&gt;&lt;/u&gt;&lt;div&gt;&lt;span style=&quot;background-color: initial;&quot;&gt;Solid Transmutation Material&lt;/span&gt;&amp;nbsp;~ 35sp / sq yd.&lt;/div&gt;" style="rounded=1;whiteSpace=wrap;html=1;fillColor=#60a917;strokeColor=#2D7600;fontColor=#ffffff;" parent="1" vertex="1">
          <mxGeometry x="1000" y="760" width="200" height="160" as="geometry" />
        </mxCell>
        <mxCell id="lYSTAF-k672k1XRqQjgE-51" value="&lt;u&gt;&lt;b&gt;Dark Oil ()&lt;br&gt;&lt;/b&gt;&lt;/u&gt;&lt;div&gt;&lt;span style=&quot;background-color: initial;&quot;&gt;Semi-solid Transmutation Oil&lt;/span&gt;&amp;nbsp;~ 40sp / gal.&lt;/div&gt;" style="rounded=1;whiteSpace=wrap;html=1;" parent="1" vertex="1">
          <mxGeometry x="2400" y="600" width="200" height="160" as="geometry" />
        </mxCell>
        <mxCell id="lYSTAF-k672k1XRqQjgE-52" value="&lt;u&gt;&lt;b&gt;Black Steel (+2 ABJURE / WEIGHT)&lt;br&gt;&lt;/b&gt;&lt;/u&gt;&lt;div&gt;&lt;span style=&quot;background-color: initial;&quot;&gt;Solid Abjuration Material&lt;/span&gt;&amp;nbsp;~ 75sp / lb.&lt;/div&gt;" style="rounded=1;whiteSpace=wrap;html=1;" parent="1" vertex="1">
          <mxGeometry x="600" y="1080" width="200" height="160" as="geometry" />
        </mxCell>
        <mxCell id="lYSTAF-k672k1XRqQjgE-53" value="&lt;u&gt;&lt;b&gt;Bituitem (+2 FORM / FABRIM)&lt;br&gt;&lt;/b&gt;&lt;/u&gt;&lt;div&gt;&lt;span style=&quot;background-color: initial;&quot;&gt;Solid Evocation Material&lt;/span&gt;&amp;nbsp;~ 25sp / lb.&lt;/div&gt;" style="rounded=1;whiteSpace=wrap;html=1;fillColor=#647687;fontColor=#ffffff;strokeColor=#314354;" parent="1" vertex="1">
          <mxGeometry x="600" y="1240" width="200" height="160" as="geometry" />
        </mxCell>
        <mxCell id="lYSTAF-k672k1XRqQjgE-54" value="&lt;u&gt;&lt;b&gt;Pressigen (+3 FORM / FABRIM)&lt;br&gt;&lt;/b&gt;&lt;/u&gt;&lt;div&gt;&lt;span style=&quot;background-color: initial;&quot;&gt;Solid Evocation Material&lt;/span&gt;&amp;nbsp;~ 150sp / sq yd.&lt;/div&gt;" style="rounded=1;whiteSpace=wrap;html=1;fillColor=#330033;fontColor=#ffffff;strokeColor=#314354;" parent="1" vertex="1">
          <mxGeometry x="400" y="1240" width="200" height="160" as="geometry" />
        </mxCell>
        <mxCell id="lYSTAF-k672k1XRqQjgE-55" value="&lt;u&gt;&lt;b&gt;Pure Force (+1 ARCANA / FORM)&lt;br&gt;&lt;/b&gt;&lt;/u&gt;&lt;div&gt;&lt;span style=&quot;background-color: initial;&quot;&gt;Solid Evocation Material&lt;/span&gt;&amp;nbsp;~ 12sp / lb.&lt;/div&gt;" style="rounded=1;whiteSpace=wrap;html=1;fillColor=#f5f5f5;fontColor=#333333;strokeColor=#666666;" parent="1" vertex="1">
          <mxGeometry x="400" y="1400" width="200" height="160" as="geometry" />
        </mxCell>
        <mxCell id="lYSTAF-k672k1XRqQjgE-56" value="&lt;u&gt;&lt;b&gt;Alchemical Chalk (+2 ARCANA / EVOKE)&lt;br&gt;&lt;/b&gt;&lt;/u&gt;&lt;div&gt;&lt;span style=&quot;background-color: initial;&quot;&gt;Solid Transmutation Material&lt;/span&gt;&amp;nbsp;~ 1.4sp / lb.&lt;/div&gt;" style="rounded=1;whiteSpace=wrap;html=1;fillColor=#f5f5f5;strokeColor=#666666;fontColor=#333333;" parent="1" vertex="1">
          <mxGeometry x="800" y="600" width="200" height="160" as="geometry" />
        </mxCell>
        <mxCell id="lYSTAF-k672k1XRqQjgE-57" value="&lt;u&gt;&lt;b&gt;Alchemical Thermite (+1 EVOKE / FIRE)&lt;br&gt;&lt;/b&gt;&lt;/u&gt;&lt;div&gt;&lt;span style=&quot;background-color: initial;&quot;&gt;Solid Evocation Material&lt;/span&gt;&amp;nbsp;~ 00sp / lb.&lt;/div&gt;" style="rounded=1;whiteSpace=wrap;html=1;fillColor=#f8cecc;strokeColor=#b85450;fontColor=#000000;" parent="1" vertex="1">
          <mxGeometry x="1000" y="920" width="200" height="160" as="geometry" />
        </mxCell>
        <mxCell id="lYSTAF-k672k1XRqQjgE-58" value="&lt;u&gt;&lt;b&gt;Alchemical Explosive (+1 EVOKE / FIRE)&lt;br&gt;&lt;/b&gt;&lt;/u&gt;&lt;div&gt;&lt;span style=&quot;background-color: initial;&quot;&gt;Solid Transmutation Material&lt;/span&gt;&amp;nbsp;~ 00sp / lb.&lt;/div&gt;" style="rounded=1;whiteSpace=wrap;html=1;fillColor=#a20025;strokeColor=#6F0000;fontColor=#ffffff;" parent="1" vertex="1">
          <mxGeometry x="800" y="920" width="200" height="160" as="geometry" />
        </mxCell>
        <mxCell id="lYSTAF-k672k1XRqQjgE-59" value="&lt;u&gt;&lt;b&gt;Suregrip (+1 EVOKE / ABJURE)&lt;br&gt;&lt;/b&gt;&lt;/u&gt;&lt;div&gt;&lt;span style=&quot;background-color: initial;&quot;&gt;Solid Transmutation Equipment&lt;/span&gt;~ 2 / oz.&lt;/div&gt;" style="rounded=1;whiteSpace=wrap;html=1;fillColor=#e3c800;strokeColor=#B09500;fontColor=#000000;" parent="1" vertex="1">
          <mxGeometry x="800" y="440" width="200" height="160" as="geometry" />
        </mxCell>
        <mxCell id="lYSTAF-k672k1XRqQjgE-60" value="&lt;u&gt;&lt;b&gt;Bulbkiss ()&lt;br&gt;&lt;/b&gt;&lt;/u&gt;&lt;div&gt;&lt;span style=&quot;background-color: initial;&quot;&gt;Solid Transmutation Vice&lt;/span&gt;&amp;nbsp;~ 18sp / oz.&lt;/div&gt;" style="rounded=1;whiteSpace=wrap;html=1;fillColor=#60a917;strokeColor=#2D7600;fontColor=#ffffff;" parent="1" vertex="1">
          <mxGeometry x="2200" y="120" width="200" height="160" as="geometry" />
        </mxCell>
        <mxCell id="lYSTAF-k672k1XRqQjgE-62" value="&lt;u&gt;&lt;b&gt;Nova ()&lt;br&gt;&lt;/b&gt;&lt;/u&gt;&lt;div&gt;&lt;span style=&quot;background-color: initial;&quot;&gt;Solid Transmutation Vice&lt;/span&gt;&amp;nbsp;~ 12sp / oz.&lt;/div&gt;" style="rounded=1;whiteSpace=wrap;html=1;fillColor=#6a00ff;strokeColor=#3700CC;fontColor=#FFD966;" parent="1" vertex="1">
          <mxGeometry x="2000" y="280" width="200" height="160" as="geometry" />
        </mxCell>
        <mxCell id="lYSTAF-k672k1XRqQjgE-63" value="&lt;u&gt;&lt;b&gt;Dareanamon ()&lt;br&gt;&lt;/b&gt;&lt;/u&gt;&lt;div&gt;&lt;span style=&quot;background-color: initial;&quot;&gt;Solid Transmutation Vice&lt;/span&gt;&amp;nbsp;~ 25sp / oz.&lt;/div&gt;" style="rounded=1;whiteSpace=wrap;html=1;fillColor=#f8cecc;strokeColor=#b85450;fontColor=#000000;" parent="1" vertex="1">
          <mxGeometry x="2200" y="280" width="200" height="160" as="geometry" />
        </mxCell>
        <mxCell id="lYSTAF-k672k1XRqQjgE-64" value="&lt;u&gt;&lt;b&gt;Isiopara ()&lt;br&gt;&lt;/b&gt;&lt;/u&gt;&lt;div&gt;&lt;span style=&quot;background-color: initial;&quot;&gt;Solid Transmutation Vice&lt;/span&gt;&amp;nbsp;~ 63sp / oz.&lt;/div&gt;" style="rounded=1;whiteSpace=wrap;html=1;fillColor=#60a917;strokeColor=#2D7600;fontColor=#ffffff;" parent="1" vertex="1">
          <mxGeometry x="2200" y="440" width="200" height="160" as="geometry" />
        </mxCell>
        <mxCell id="lYSTAF-k672k1XRqQjgE-65" value="&lt;u&gt;&lt;b&gt;Spell-smoke (+2 ABJURE / ARCANA)&lt;br&gt;&lt;/b&gt;&lt;/u&gt;&lt;div&gt;&lt;span style=&quot;background-color: initial;&quot;&gt;Gaseous Abjuration Material&lt;/span&gt;&amp;nbsp;~ 7sp / oz.&lt;/div&gt;" style="rounded=1;whiteSpace=wrap;html=1;fillColor=#e1d5e7;strokeColor=#9673a6;fontColor=#000000;" parent="1" vertex="1">
          <mxGeometry x="600" y="1400" width="200" height="160" as="geometry" />
        </mxCell>
        <mxCell id="lYSTAF-k672k1XRqQjgE-66" value="&lt;u&gt;&lt;b&gt;Torrin&#39;s Bane ()&lt;/b&gt;&lt;/u&gt;&lt;div&gt;Liquid Evocation Poison ~ 30sp /&amp;nbsp;&lt;span style=&quot;background-color: initial;&quot;&gt;1/16&lt;/span&gt;&lt;span style=&quot;background-color: initial;&quot;&gt;&amp;nbsp;&lt;/span&gt;&lt;span style=&quot;background-color: initial;&quot;&gt;&amp;nbsp;gal.&lt;/span&gt;&lt;/div&gt;" style="rounded=1;whiteSpace=wrap;html=1;fillColor=#e3c800;strokeColor=#B09500;fontColor=#000000;" parent="1" vertex="1">
          <mxGeometry x="1800" y="440" width="200" height="160" as="geometry" />
        </mxCell>
        <mxCell id="lYSTAF-k672k1XRqQjgE-67" value="&lt;u&gt;&lt;b&gt;Nalasculas ()&lt;br&gt;&lt;/b&gt;&lt;/u&gt;&lt;div&gt;&lt;span style=&quot;background-color: initial;&quot;&gt;Semi-solid Necromancy Oil&lt;/span&gt;&amp;nbsp;~ 15sp / lb.&lt;/div&gt;" style="rounded=1;whiteSpace=wrap;html=1;fillColor=#a0522d;fontColor=#ffffff;strokeColor=#6D1F00;" parent="1" vertex="1">
          <mxGeometry x="2600" y="600" width="200" height="160" as="geometry" />
        </mxCell>
        <mxCell id="lYSTAF-k672k1XRqQjgE-68" value="&lt;u&gt;&lt;b&gt;Heartvine (+2 EARTH / CONJURE)&lt;br&gt;&lt;/b&gt;&lt;/u&gt;&lt;div&gt;&lt;span style=&quot;background-color: initial;&quot;&gt;Solid Cojnuration Equipment&amp;nbsp;&lt;/span&gt;~ 00sp / unit.&lt;/div&gt;" style="rounded=1;whiteSpace=wrap;html=1;fillColor=#6d8764;strokeColor=#3A5431;fontColor=#ffffff;" parent="1" vertex="1">
          <mxGeometry x="800" y="1080" width="200" height="160" as="geometry" />
        </mxCell>
        <mxCell id="lYSTAF-k672k1XRqQjgE-69" value="&lt;u&gt;&lt;b&gt;Flashpellet (+1 LIGHT / EVOKE)&lt;br&gt;&lt;/b&gt;&lt;/u&gt;&lt;div&gt;&lt;span style=&quot;background-color: initial;&quot;&gt;Solid Evocation Equipment&amp;nbsp;&lt;/span&gt;~ 1sp / unit.&lt;/div&gt;" style="rounded=1;whiteSpace=wrap;html=1;fillColor=#e3c800;strokeColor=#B09500;fontColor=#000000;" parent="1" vertex="1">
          <mxGeometry x="1000" y="1080" width="200" height="160" as="geometry" />
        </mxCell>
        <mxCell id="lYSTAF-k672k1XRqQjgE-70" value="&lt;u&gt;&lt;b&gt;Thorn Bloomer (+1 EARTH / CONJURE)&lt;br&gt;&lt;/b&gt;&lt;/u&gt;&lt;div&gt;&lt;span style=&quot;background-color: initial;&quot;&gt;Solid Cojnuration Equipment&amp;nbsp;&lt;/span&gt;~ 40sp / unit.&lt;/div&gt;" style="rounded=1;whiteSpace=wrap;html=1;fillColor=#008a00;strokeColor=#005700;fontColor=#ffffff;" parent="1" vertex="1">
          <mxGeometry x="800" y="1240" width="200" height="160" as="geometry" />
        </mxCell>
        <mxCell id="lYSTAF-k672k1XRqQjgE-71" value="&lt;u&gt;&lt;b&gt;Chaotic Gold (+2 ARCANE / EVOKE)&lt;br&gt;&lt;/b&gt;&lt;/u&gt;&lt;div&gt;&lt;span style=&quot;background-color: initial;&quot;&gt;Solid Evocation Material&amp;nbsp;&lt;/span&gt;~ 860sp / lb.&lt;/div&gt;" style="rounded=1;whiteSpace=wrap;html=1;fillColor=#e3c800;strokeColor=#B09500;fontColor=#000000;" parent="1" vertex="1">
          <mxGeometry x="1000" y="1400" width="200" height="160" as="geometry" />
        </mxCell>
        <mxCell id="lYSTAF-k672k1XRqQjgE-72" value="&lt;u&gt;&lt;b&gt;Temptation Arch (+2 CHARM / ILLUS)&lt;br&gt;&lt;/b&gt;&lt;/u&gt;&lt;div&gt;&lt;span style=&quot;background-color: initial;&quot;&gt;Solid Conjuration Equipment&lt;/span&gt;&amp;nbsp;~ 00sp / unit.&lt;/div&gt;" style="rounded=1;whiteSpace=wrap;html=1;fillColor=#f5f5f5;strokeColor=#666666;fontColor=#333333;" parent="1" vertex="1">
          <mxGeometry x="1000" y="1240" width="200" height="160" as="geometry" />
        </mxCell>
        <mxCell id="lYSTAF-k672k1XRqQjgE-73" value="&lt;u&gt;&lt;b&gt;Secreclude Propaterol ()&lt;br&gt;&lt;/b&gt;&lt;/u&gt;&lt;div&gt;&lt;span style=&quot;background-color: initial;&quot;&gt;Liquid Transmutation Equipment&lt;/span&gt;&amp;nbsp;~ 00sp / 1/16 gal.&lt;/div&gt;" style="rounded=1;whiteSpace=wrap;html=1;fillColor=#1ba1e2;strokeColor=#006EAF;fontColor=#ffffff;" parent="1" vertex="1">
          <mxGeometry x="800" y="1400" width="200" height="160" as="geometry" />
        </mxCell>
        <mxCell id="lYSTAF-k672k1XRqQjgE-74" value="&lt;u&gt;&lt;b&gt;Pretokarin ()&lt;br&gt;&lt;/b&gt;&lt;/u&gt;&lt;div&gt;&lt;span style=&quot;background-color: initial;&quot;&gt;Liquid Transmutation Equipment&lt;/span&gt;&amp;nbsp;~ 00sp / 1/16 gal.&lt;/div&gt;" style="rounded=1;whiteSpace=wrap;html=1;fillColor=#d80073;strokeColor=#A50040;fontColor=#ffffff;" parent="1" vertex="1">
          <mxGeometry x="800" y="1560" width="200" height="160" as="geometry" />
        </mxCell>
        <mxCell id="lYSTAF-k672k1XRqQjgE-76" value="&lt;u&gt;&lt;b&gt;Ambebamol ()&lt;br&gt;&lt;/b&gt;&lt;/u&gt;&lt;div&gt;&lt;span style=&quot;background-color: initial;&quot;&gt;Solid Transmutation Equipment&lt;/span&gt;&amp;nbsp;~ 00sp / 1/16 gal.&lt;/div&gt;" style="rounded=1;whiteSpace=wrap;html=1;fillColor=#6a00ff;strokeColor=#3700CC;fontColor=#ffffff;" parent="1" vertex="1">
          <mxGeometry x="1000" y="1560" width="200" height="160" as="geometry" />
        </mxCell>
        <mxCell id="lYSTAF-k672k1XRqQjgE-77" value="&lt;u&gt;&lt;b&gt;Aerotide ()&lt;br&gt;&lt;/b&gt;&lt;/u&gt;&lt;div&gt;&lt;span style=&quot;background-color: initial;&quot;&gt;Liquid Transmutation Equipment&lt;/span&gt;&amp;nbsp;~ 00sp / 1/16 gal.&lt;/div&gt;" style="rounded=1;whiteSpace=wrap;html=1;fillColor=#0050ef;strokeColor=#001DBC;fontColor=#ffffff;" parent="1" vertex="1">
          <mxGeometry x="1000" y="1720" width="200" height="160" as="geometry" />
        </mxCell>
        <mxCell id="lYSTAF-k672k1XRqQjgE-78" value="&lt;u&gt;&lt;b&gt;Kylao Gel ()&lt;br&gt;&lt;/b&gt;&lt;/u&gt;&lt;div&gt;&lt;span style=&quot;background-color: initial;&quot;&gt;Semi-solid Transmutation Equipment&lt;/span&gt;&amp;nbsp;~ 00sp / unit.&lt;/div&gt;" style="rounded=1;whiteSpace=wrap;html=1;fillColor=#f5f5f5;strokeColor=#666666;fontColor=#333333;" parent="1" vertex="1">
          <mxGeometry x="2400" y="760" width="200" height="160" as="geometry" />
        </mxCell>
      </root>
    </mxGraphModel>
  </diagram>
  <diagram id="qvHHYs44pA0pfnlJ-Z-R" name="Production Lines">
    <mxGraphModel dx="2304" dy="1338" grid="1" gridSize="10" guides="1" tooltips="1" connect="1" arrows="1" fold="1" page="1" pageScale="1" pageWidth="850" pageHeight="1100" math="0" shadow="0">
      <root>
        <mxCell id="0" />
        <mxCell id="1" parent="0" />
        <mxCell id="gdt0zzH-tcD3_O3nn9vy-2" value="EVOKE&lt;div&gt;&lt;br&gt;&lt;/div&gt;&lt;div&gt;&lt;br&gt;&lt;/div&gt;&lt;div&gt;&lt;br&gt;&lt;/div&gt;&lt;div&gt;&lt;br&gt;&lt;/div&gt;&lt;div&gt;&lt;br&gt;&lt;/div&gt;&lt;div&gt;&lt;br&gt;&lt;/div&gt;&lt;div&gt;&lt;br&gt;&lt;/div&gt;&lt;div&gt;&lt;br&gt;&lt;/div&gt;&lt;div&gt;&lt;br&gt;&lt;/div&gt;&lt;div&gt;&lt;br&gt;&lt;/div&gt;&lt;div&gt;&lt;br&gt;&lt;/div&gt;&lt;div&gt;&lt;br&gt;&lt;/div&gt;&lt;div&gt;&lt;br&gt;&lt;/div&gt;&lt;div&gt;&lt;br&gt;&lt;/div&gt;&lt;div&gt;&lt;br&gt;&lt;/div&gt;&lt;div&gt;&lt;br&gt;&lt;/div&gt;&lt;div&gt;&lt;br&gt;&lt;/div&gt;&lt;div&gt;&lt;br&gt;&lt;/div&gt;&lt;div&gt;&lt;br&gt;&lt;/div&gt;&lt;div&gt;&lt;br&gt;&lt;/div&gt;&lt;div&gt;&lt;br&gt;&lt;/div&gt;&lt;div&gt;&lt;br&gt;&lt;/div&gt;&lt;div&gt;&lt;br&gt;&lt;/div&gt;&lt;div&gt;&lt;br&gt;&lt;/div&gt;&lt;div&gt;&lt;br&gt;&lt;/div&gt;&lt;div&gt;&lt;br&gt;&lt;/div&gt;&lt;div&gt;&lt;br&gt;&lt;/div&gt;&lt;div&gt;&lt;br&gt;&lt;/div&gt;&lt;div&gt;&lt;br&gt;&lt;/div&gt;" style="rounded=1;whiteSpace=wrap;html=1;fillColor=#fad9d5;strokeColor=#ae4132;fontColor=#000000;" vertex="1" parent="1">
          <mxGeometry x="920" y="350" width="240" height="450" as="geometry" />
        </mxCell>
        <mxCell id="j9Xr7BRWaZ_rjHMlphcg-1" value="&lt;p style=&quot;line-height: 100%; font-size: 12px;&quot;&gt;While many processes or specific recipies may be different between each Alchemist, the following diagrams display a simple process to create each Product&lt;/p&gt;" style="rounded=0;whiteSpace=wrap;html=1;fontSize=32;" vertex="1" parent="1">
          <mxGeometry x="40" y="40" width="320" height="80" as="geometry" />
        </mxCell>
        <mxCell id="iHLkblWl0iBVsMaYSikg-3" style="edgeStyle=orthogonalEdgeStyle;rounded=0;orthogonalLoop=1;jettySize=auto;html=1;exitX=0.5;exitY=1;exitDx=0;exitDy=0;entryX=0.5;entryY=0;entryDx=0;entryDy=0;" edge="1" parent="1" source="8XYGvjCrkeDIT14LNfXU-1" target="iHLkblWl0iBVsMaYSikg-1">
          <mxGeometry relative="1" as="geometry" />
        </mxCell>
        <mxCell id="8XYGvjCrkeDIT14LNfXU-1" value="&lt;u&gt;&lt;b&gt;Philosopher&#39;s Stone (+8 ANY / ALL Potency)&lt;/b&gt;&lt;/u&gt;&lt;div&gt;Solid Transmutation Material ~ 3,520,000sp / unit&lt;/div&gt;&lt;div&gt;&lt;br&gt;&lt;/div&gt;&lt;div&gt;&lt;i&gt;The greatest material enhancer an alchemist can own.&lt;/i&gt;&lt;/div&gt;&lt;div&gt;&lt;i&gt;&lt;br&gt;&lt;/i&gt;&lt;/div&gt;&lt;div&gt;&lt;i&gt;When properly creating Red Water or Yellow Powder, the Philosopher&#39;s Stone is not consumed.&lt;/i&gt;&lt;/div&gt;" style="rounded=1;whiteSpace=wrap;html=1;fillColor=#e51400;fontColor=#ffffff;strokeColor=#B20000;" vertex="1" parent="1">
          <mxGeometry x="360" y="160" width="400" height="160" as="geometry" />
        </mxCell>
        <mxCell id="8XYGvjCrkeDIT14LNfXU-3" style="edgeStyle=orthogonalEdgeStyle;rounded=0;orthogonalLoop=1;jettySize=auto;html=1;exitX=0.5;exitY=1;exitDx=0;exitDy=0;entryX=0.5;entryY=0;entryDx=0;entryDy=0;" edge="1" parent="1" source="8XYGvjCrkeDIT14LNfXU-2" target="8XYGvjCrkeDIT14LNfXU-1">
          <mxGeometry relative="1" as="geometry" />
        </mxCell>
        <mxCell id="8XYGvjCrkeDIT14LNfXU-2" value="&lt;p style=&quot;line-height: 100%; font-size: 12px;&quot;&gt;The process of creating a Philosipher&#39;s Stone is legendary, and is not generally replicacable in a timely manner, and therefore has been excluded.&lt;/p&gt;" style="rounded=0;whiteSpace=wrap;html=1;fontSize=32;fillColor=#1A1A1A;fontColor=#ffffff;strokeColor=#314354;" vertex="1" parent="1">
          <mxGeometry x="400" y="40" width="320" height="80" as="geometry" />
        </mxCell>
        <mxCell id="iHLkblWl0iBVsMaYSikg-2" style="edgeStyle=orthogonalEdgeStyle;rounded=0;orthogonalLoop=1;jettySize=auto;html=1;exitX=1;exitY=0.5;exitDx=0;exitDy=0;entryX=0.5;entryY=0;entryDx=0;entryDy=0;" edge="1" parent="1" source="5u77b9LUbtuVIoB4WJyx-1" target="iHLkblWl0iBVsMaYSikg-1">
          <mxGeometry relative="1" as="geometry" />
        </mxCell>
        <mxCell id="5u77b9LUbtuVIoB4WJyx-1" value="Water&lt;div&gt;WATER / FORM&lt;/div&gt;" style="rounded=1;whiteSpace=wrap;html=1;fillColor=#1ba1e2;fontColor=#ffffff;strokeColor=#006EAF;" vertex="1" parent="1">
          <mxGeometry x="400" y="360" width="120" height="60" as="geometry" />
        </mxCell>
        <mxCell id="z4U2R_cxg9iuc4WTyO9R-3" style="edgeStyle=orthogonalEdgeStyle;rounded=0;orthogonalLoop=1;jettySize=auto;html=1;exitX=0.5;exitY=1;exitDx=0;exitDy=0;entryX=0.5;entryY=0;entryDx=0;entryDy=0;" edge="1" parent="1" source="iHLkblWl0iBVsMaYSikg-1" target="f7aP3YC16yGkelC2Ym2e-1">
          <mxGeometry relative="1" as="geometry" />
        </mxCell>
        <mxCell id="iHLkblWl0iBVsMaYSikg-1" value="&lt;b&gt;&lt;u&gt;Red Water (+4 ANY / ALL Potency)&lt;/u&gt;&lt;/b&gt;&lt;div&gt;Liquid Transmutation Material ~ 600sp / 1/16gal.&lt;/div&gt;&lt;div&gt;&lt;br&gt;&lt;/div&gt;&lt;div&gt;&lt;i&gt;The most potent liquid base in alchemy. Used as high-grade liquid base or as component in itself.&amp;nbsp;&lt;/i&gt;&lt;/div&gt;" style="rounded=1;whiteSpace=wrap;html=1;fillColor=#a20025;strokeColor=#6F0000;fontColor=#ffffff;" vertex="1" parent="1">
          <mxGeometry x="560" y="360" width="200" height="160" as="geometry" />
        </mxCell>
        <mxCell id="f7aP3YC16yGkelC2Ym2e-1" value="&lt;b&gt;&lt;u&gt;Yellow Powder (+2 ANY / ALL Potency)&lt;/u&gt;&lt;/b&gt;&lt;div&gt;Solid Transmutation Material ~ 150sp / ounce&lt;/div&gt;&lt;div&gt;&lt;br&gt;&lt;/div&gt;&lt;div&gt;&lt;i&gt;The most potent solid base in alchemy. Used as high-grade solid base or as component in itself.&amp;nbsp;&lt;/i&gt;&lt;/div&gt;" style="rounded=1;whiteSpace=wrap;html=1;fillColor=#f0a30a;fontColor=#000000;strokeColor=#BD7000;" vertex="1" parent="1">
          <mxGeometry x="560" y="560" width="200" height="160" as="geometry" />
        </mxCell>
        <mxCell id="z4U2R_cxg9iuc4WTyO9R-2" style="edgeStyle=orthogonalEdgeStyle;rounded=0;orthogonalLoop=1;jettySize=auto;html=1;exitX=0.5;exitY=0;exitDx=0;exitDy=0;entryX=0.5;entryY=0;entryDx=0;entryDy=0;" edge="1" parent="1" source="z4U2R_cxg9iuc4WTyO9R-1" target="f7aP3YC16yGkelC2Ym2e-1">
          <mxGeometry relative="1" as="geometry" />
        </mxCell>
        <mxCell id="z4U2R_cxg9iuc4WTyO9R-1" value="Bone Ash&lt;div&gt;MORTAL / FIRE&lt;/div&gt;" style="rounded=1;whiteSpace=wrap;html=1;fillColor=#76608a;fontColor=#ffffff;strokeColor=#432D57;" vertex="1" parent="1">
          <mxGeometry x="400" y="560" width="120" height="60" as="geometry" />
        </mxCell>
        <mxCell id="2AgGYQ5ww4tuP2DNvMcF-1" value="&lt;p style=&quot;line-height: 100%;&quot;&gt;&lt;i style=&quot;&quot;&gt;&lt;font style=&quot;font-size: 18px;&quot;&gt;&quot;Purified&quot; Liquids&lt;/font&gt;&lt;/i&gt;&lt;/p&gt;" style="rounded=0;whiteSpace=wrap;html=1;fontSize=32;fillColor=#60a917;fontColor=#ffffff;strokeColor=#2D7600;" vertex="1" parent="1">
          <mxGeometry x="920" y="40" width="720" height="80" as="geometry" />
        </mxCell>
        <mxCell id="z-OZSb4JF-Cvq5JJ5Ws0-1" value="&lt;u&gt;&lt;b&gt;Liquid Light (+3 LIGHT / EVOKE)&lt;/b&gt;&lt;/u&gt;&lt;div&gt;Liquid Enchantment Material ~ 7sp / 1/16 gal.&lt;/div&gt;&lt;div&gt;&lt;br&gt;&lt;/div&gt;&lt;div&gt;&lt;i&gt;A &quot;purified&quot; elemental light in the form of a liquid. Brightness increases with potency and irritation.&lt;/i&gt;&lt;/div&gt;" style="rounded=1;whiteSpace=wrap;html=1;fillColor=#e3c800;fontColor=#000000;strokeColor=#B09500;" vertex="1" parent="1">
          <mxGeometry x="1240" y="160" width="200" height="160" as="geometry" />
        </mxCell>
        <mxCell id="HFLuQDSFov2FyAZZUiNv-2" value="LIGHT&lt;div&gt;&lt;br&gt;&lt;/div&gt;&lt;div&gt;&lt;br&gt;&lt;/div&gt;&lt;div&gt;&lt;br&gt;&lt;/div&gt;&lt;div&gt;&lt;br&gt;&lt;/div&gt;&lt;div&gt;&lt;br&gt;&lt;/div&gt;&lt;div&gt;&lt;br&gt;&lt;/div&gt;&lt;div&gt;&lt;br&gt;&lt;/div&gt;&lt;div&gt;&lt;br&gt;&lt;/div&gt;" style="rounded=1;whiteSpace=wrap;html=1;fillColor=#fad9d5;strokeColor=#ae4132;fontColor=#000000;" vertex="1" parent="1">
          <mxGeometry x="920" y="160" width="240" height="150" as="geometry" />
        </mxCell>
        <mxCell id="CrlIH_4SzaGFnn9dso4q-1" value="Glowshroom&lt;div&gt;LIGHT / FORM&lt;/div&gt;" style="rounded=1;whiteSpace=wrap;html=1;fillColor=#60a917;fontColor=#ffffff;strokeColor=#2D7600;" vertex="1" parent="1">
          <mxGeometry x="920" y="190" width="120" height="60" as="geometry" />
        </mxCell>
        <mxCell id="HFLuQDSFov2FyAZZUiNv-1" value="Brightmoss&lt;div&gt;LIGHT / REGEN&lt;/div&gt;" style="rounded=1;whiteSpace=wrap;html=1;fillColor=#60a917;fontColor=#ffffff;strokeColor=#2D7600;" vertex="1" parent="1">
          <mxGeometry x="1040" y="190" width="120" height="60" as="geometry" />
        </mxCell>
        <mxCell id="7PEZpJlZm_VM0cRiZDTn-1" value="Generic Feather&lt;div&gt;WEIGHT / LIGHT&lt;/div&gt;" style="rounded=1;whiteSpace=wrap;html=1;fillColor=#f0a30a;fontColor=#000000;strokeColor=#BD7000;" vertex="1" parent="1">
          <mxGeometry x="920" y="250" width="120" height="60" as="geometry" />
        </mxCell>
        <mxCell id="7HHjnqQ9eVh4niORxl6G-1" value="Onyx&lt;div&gt;LIGHT / ARCANA&lt;/div&gt;" style="rounded=1;whiteSpace=wrap;html=1;fillColor=#76608a;fontColor=#ffffff;strokeColor=#432D57;" vertex="1" parent="1">
          <mxGeometry x="1040" y="250" width="120" height="60" as="geometry" />
        </mxCell>
        <mxCell id="BKloUCv7LbFhYfKP5Ezj-1" value="Alknet Pulp&lt;div&gt;&lt;div&gt;&lt;div&gt;EVOKE / RESIST&lt;/div&gt;&lt;/div&gt;&lt;/div&gt;" style="rounded=1;whiteSpace=wrap;html=1;fillColor=#60a917;fontColor=#ffffff;strokeColor=#2D7600;" vertex="1" parent="1">
          <mxGeometry x="920" y="380" width="120" height="60" as="geometry" />
        </mxCell>
        <mxCell id="ucvppVM6y2ardY-sYi1P-1" value="Heartnut Twig&lt;div&gt;ABJURE / EVOKE&lt;/div&gt;" style="rounded=1;whiteSpace=wrap;html=1;fillColor=#60a917;fontColor=#ffffff;strokeColor=#2D7600;" vertex="1" parent="1">
          <mxGeometry x="1040" y="380" width="120" height="60" as="geometry" />
        </mxCell>
        <mxCell id="G19npzrigW7xZTck3M6P-1" value="Cactus Fruit&lt;div&gt;REGEN / EVOKE&lt;/div&gt;" style="rounded=1;whiteSpace=wrap;html=1;fillColor=#60a917;fontColor=#ffffff;strokeColor=#2D7600;" vertex="1" parent="1">
          <mxGeometry x="920" y="440" width="120" height="60" as="geometry" />
        </mxCell>
        <mxCell id="Or1Zm3HNI7SfM2YPXPNR-1" value="Beholder Eye&lt;div&gt;ARCANA / EVOKE&lt;/div&gt;" style="rounded=1;whiteSpace=wrap;html=1;fillColor=#f0a30a;fontColor=#000000;strokeColor=#BD7000;" vertex="1" parent="1">
          <mxGeometry x="1040" y="440" width="120" height="60" as="geometry" />
        </mxCell>
        <mxCell id="EA2CZbBYpGpoAmYeuyWF-1" value="Dragon Fang&lt;div&gt;DRACO / EVOKE&lt;/div&gt;" style="rounded=1;whiteSpace=wrap;html=1;fillColor=#f0a30a;fontColor=#000000;strokeColor=#BD7000;" vertex="1" parent="1">
          <mxGeometry x="920" y="500" width="120" height="60" as="geometry" />
        </mxCell>
        <mxCell id="rZ1x6Hv8Iu46PchYLRsF-1" value="Basalisk Gullet&lt;div&gt;NECROT / EVOKE&lt;/div&gt;" style="rounded=1;whiteSpace=wrap;html=1;fillColor=#f0a30a;fontColor=#000000;strokeColor=#BD7000;" vertex="1" parent="1">
          <mxGeometry x="1040" y="500" width="120" height="60" as="geometry" />
        </mxCell>
        <mxCell id="PYrcW6kPoxXOfc9lSSuq-1" value="Ivory&lt;div&gt;FABRIM / EVOKE&lt;/div&gt;" style="rounded=1;whiteSpace=wrap;html=1;fillColor=#f0a30a;fontColor=#000000;strokeColor=#BD7000;" vertex="1" parent="1">
          <mxGeometry x="920" y="560" width="120" height="60" as="geometry" />
        </mxCell>
        <mxCell id="afWSGHfSIOU82BOqLXMr-1" value="Bat Guano&lt;div&gt;FIRE / EVOKE&lt;/div&gt;" style="rounded=1;whiteSpace=wrap;html=1;fillColor=#f0a30a;fontColor=#000000;strokeColor=#BD7000;" vertex="1" parent="1">
          <mxGeometry x="1040" y="560" width="120" height="60" as="geometry" />
        </mxCell>
        <mxCell id="B3Ytc3l-dxBxGTaWWajN-1" value="Iron&lt;div&gt;FABRIM / EVOKE&lt;/div&gt;" style="rounded=1;whiteSpace=wrap;html=1;fillColor=#76608a;fontColor=#ffffff;strokeColor=#432D57;" vertex="1" parent="1">
          <mxGeometry x="920" y="620" width="120" height="60" as="geometry" />
        </mxCell>
        <mxCell id="S244-dkT842t5y36tjQJ-1" value="Platinum&lt;div&gt;FABRIM / EVOKE&lt;/div&gt;" style="rounded=1;whiteSpace=wrap;html=1;fillColor=#76608a;fontColor=#ffffff;strokeColor=#432D57;" vertex="1" parent="1">
          <mxGeometry x="1040" y="620" width="120" height="60" as="geometry" />
        </mxCell>
        <mxCell id="u8XKwhQ8BfWDntl9YDTi-1" value="Mica&lt;div&gt;ILLUSION / EVOKE&lt;/div&gt;" style="rounded=1;whiteSpace=wrap;html=1;fillColor=#76608a;fontColor=#ffffff;strokeColor=#432D57;" vertex="1" parent="1">
          <mxGeometry x="920" y="680" width="120" height="60" as="geometry" />
        </mxCell>
        <mxCell id="tfMgWnwb38FoCDbJkMOX-1" value="Limestone&lt;div&gt;EVOKE / FABRIM&lt;/div&gt;" style="rounded=1;whiteSpace=wrap;html=1;fillColor=#76608a;fontColor=#ffffff;strokeColor=#432D57;" vertex="1" parent="1">
          <mxGeometry x="1040" y="680" width="120" height="60" as="geometry" />
        </mxCell>
        <mxCell id="tfMgWnwb38FoCDbJkMOX-2" value="Chalk&lt;div&gt;EVOKE / ARCANA&lt;/div&gt;" style="rounded=1;whiteSpace=wrap;html=1;fillColor=#76608a;fontColor=#ffffff;strokeColor=#432D57;" vertex="1" parent="1">
          <mxGeometry x="920" y="740" width="120" height="60" as="geometry" />
        </mxCell>
        <mxCell id="gdt0zzH-tcD3_O3nn9vy-1" value="Sulfur&lt;div&gt;FIRE / EVOKE&lt;/div&gt;" style="rounded=1;whiteSpace=wrap;html=1;fillColor=#76608a;fontColor=#ffffff;strokeColor=#432D57;" vertex="1" parent="1">
          <mxGeometry x="1040" y="740" width="120" height="60" as="geometry" />
        </mxCell>
      </root>
    </mxGraphModel>
  </diagram>
</mxfile>
